<?xml version="1.0" encoding="utf-8"?>
<!-- Generator: Adobe Illustrator 17.0.0, SVG Export Plug-In . SVG Version: 6.00 Build 0)  -->
<!DOCTYPE svg PUBLIC "-//W3C//DTD SVG 1.1//EN" "http://www.w3.org/Graphics/SVG/1.1/DTD/svg11.dtd">
<svg version="1.1" xmlns="http://www.w3.org/2000/svg" xmlns:xlink="http://www.w3.org/1999/xlink" x="0px" y="0px"
	 width="1593.889px" height="517.308px" viewBox="0 0 1593.889 517.308" enable-background="new 0 0 1593.889 517.308"
	 xml:space="preserve">

<g id="Layer_1">
	<polygon fill="#999999" points="1467.218,69.648 1518.425,18.441 1499.559,-0.425 1494.169,-0.425 1513.034,18.441
		1467.218,64.258 1424.095,21.136 1402.534,-0.425 1397.144,-0.425 1424.095,26.526 	"/>
	<polygon fill="#999999" points="1467.218,80.429 1529.205,18.441 1510.34,-0.425 1504.949,-0.425 1523.815,18.441 1467.218,75.039
		1424.095,31.917 1391.753,-0.425 1386.363,-0.425 1424.095,37.307 	"/>
	<polygon fill="#999999" points="1467.218,58.868 1507.645,18.441 1488.778,-0.425 1483.388,-0.425 1502.254,18.441
		1467.218,53.478 1424.095,10.355 1413.314,-0.425 1407.924,-0.425 1424.095,15.746 	"/>
	<polygon fill="#999999" points="1467.218,91.209 1539.986,18.441 1521.12,-0.425 1515.729,-0.425 1534.596,18.441 1467.218,85.819
		1424.095,42.697 1380.973,-0.425 1375.582,-0.425 1424.095,48.087 	"/>
	<polygon fill="#999999" points="1467.218,101.99 1550.767,18.441 1531.9,-0.425 1526.511,-0.425 1545.376,18.441 1467.218,96.6
		1424.095,53.478 1370.192,-0.425 1364.802,-0.425 1424.095,58.868 	"/>
	<polygon fill="#999999" points="1467.218,48.087 1496.864,18.441 1477.998,-0.425 1472.607,-0.425 1491.474,18.441
		1467.218,42.697 1424.095,-0.425 1418.705,-0.425 1424.095,4.965 	"/>
	<polygon fill="#999999" points="1486.083,18.441 1467.218,-0.425 1461.827,-0.425 1480.693,18.441 1467.218,31.917
		1434.876,-0.425 1429.485,-0.425 1467.218,37.307 	"/>
	<polygon fill="#999999" points="1475.303,18.441 1456.437,-0.425 1451.047,-0.425 1469.912,18.441 1467.218,21.136
		1445.656,-0.425 1440.266,-0.425 1467.218,26.526 	"/>
	<path fill="#999999" d="M1345.936,147.808L1294.729,96.6l-8.086,8.085l51.208,51.208L1345.936,147.808z M1294.729,101.99
		l45.817,45.817l-2.695,2.695l-45.817-45.817L1294.729,101.99z"/>
	<path fill="#999999" d="M1367.497,147.808l-72.769-72.769l-29.646,29.646l72.769,72.769L1367.497,147.808z M1294.729,80.429
		l67.378,67.378l-24.256,24.256l-67.379-67.378L1294.729,80.429z"/>
	<path fill="#999999" d="M1356.717,147.808l-61.988-61.988l-18.866,18.866l61.988,61.988L1356.717,147.808z M1294.729,91.209
		l56.598,56.598l-13.476,13.476l-56.598-56.598L1294.729,91.209z"/>
	<polygon fill="#999999" points="1259.691,18.441 1240.825,-0.425 1235.436,-0.425 1254.301,18.441 1251.606,21.136
		1230.045,-0.425 1224.654,-0.425 1251.606,26.526 	"/>
	<polygon fill="#999999" points="1270.472,18.441 1251.606,-0.425 1246.216,-0.425 1265.082,18.441 1251.606,31.917
		1219.265,-0.425 1213.874,-0.425 1251.606,37.307 	"/>
	<polygon fill="#999999" points="1281.253,18.441 1262.387,-0.425 1256.996,-0.425 1275.862,18.441 1251.606,42.697
		1208.484,-0.425 1203.094,-0.425 1251.606,48.087 	"/>
	<polygon fill="#999999" points="1292.033,18.441 1273.167,-0.425 1267.777,-0.425 1286.643,18.441 1251.606,53.478
		1197.703,-0.425 1192.313,-0.425 1251.606,58.868 	"/>
	<path fill="#999999" d="M1386.408,258.308l37.713,37.712l18.865-18.866l-18.865-18.866h-0.046l-43.103-43.103l-18.866,18.866
		l24.257,24.256H1386.408z M1380.973,220.576l37.732,37.732h0.045l18.847,18.847l-13.476,13.476l-32.342-32.342h-0.046
		l-24.236-24.237L1380.973,220.576z"/>
	<path fill="#999999" d="M1378.277,147.808l-83.549-83.549l-40.428,40.427l83.55,83.549L1378.277,147.808z M1294.729,69.648
		l78.159,78.159l-35.037,35.037l-78.159-78.159L1294.729,69.648z"/>
	<polygon fill="#999999" points="1141.105,18.441 1122.239,-0.425 1116.849,-0.425 1135.715,18.441 1122.239,31.917
		1089.897,-0.425 1084.507,-0.425 1122.239,37.307 	"/>
	<polygon fill="#999999" points="1151.886,18.441 1133.02,-0.425 1127.63,-0.425 1146.495,18.441 1122.239,42.697 1079.117,-0.425
		1073.727,-0.425 1122.239,48.087 	"/>
	<polygon fill="#999999" points="1162.666,18.441 1143.801,-0.425 1138.41,-0.425 1157.276,18.441 1122.239,53.478 1068.337,-0.425
		1062.946,-0.425 1122.239,58.868 	"/>
	<polygon fill="#999999" points="1130.324,18.441 1111.459,-0.425 1106.068,-0.425 1124.935,18.441 1122.239,21.136
		1100.678,-0.425 1095.288,-0.425 1122.239,26.526 	"/>
	<polygon fill="#999999" points="949.75,15.746 992.873,58.868 1033.3,18.441 1014.434,-0.425 1009.043,-0.425 1027.909,18.441
		992.873,53.478 949.751,10.356 949.751,10.355 938.971,-0.425 933.58,-0.425 949.75,15.745 	"/>
	<polygon fill="#999999" points="949.75,4.965 992.873,48.087 1022.52,18.441 1003.653,-0.425 998.263,-0.425 1017.129,18.441
		992.873,42.697 949.751,-0.424 949.751,-0.425 944.36,-0.425 949.75,4.964 	"/>
	<polygon fill="#999999" points="1011.738,18.441 992.873,-0.425 987.482,-0.425 1006.349,18.441 992.873,31.917 960.531,-0.425
		955.141,-0.425 992.873,37.307 	"/>
	<polygon fill="#999999" points="1000.958,18.441 982.092,-0.425 976.702,-0.425 995.567,18.441 992.873,21.136 971.312,-0.425
		965.921,-0.425 992.873,26.526 	"/>
	<polygon fill="#999999" points="785.348,18.441 766.481,-0.425 761.092,-0.425 779.957,18.441 777.263,21.136 755.701,-0.425
		750.31,-0.425 777.263,26.526 	"/>
	<polygon fill="#999999" points="777.263,58.868 817.689,18.441 798.823,-0.425 793.433,-0.425 812.299,18.441 777.263,53.478
		734.139,10.355 723.359,-0.425 717.968,-0.425 734.139,15.746 	"/>
	<polygon fill="#999999" points="796.128,18.441 777.263,-0.425 771.872,-0.425 790.738,18.441 777.263,31.917 744.92,-0.425
		739.53,-0.425 777.263,37.307 	"/>
	<polygon fill="#999999" points="777.263,48.087 806.909,18.441 788.043,-0.425 782.652,-0.425 801.519,18.441 777.263,42.697
		734.139,-0.425 728.749,-0.425 734.139,4.965 	"/>
	<polygon fill="#999999" points="898.543,61.563 949.75,112.77 949.75,112.771 992.873,155.893 1000.958,147.808 949.751,96.601
		949.751,96.6 914.714,61.563 949.75,26.527 992.873,69.648 1035.995,26.526 1071.031,61.563 1027.909,104.685 1035.995,112.771
		1087.202,61.563 1025.214,-0.425 1019.824,-0.425 1081.812,61.563 1035.995,107.38 1033.3,104.685 1076.422,61.563
		1035.995,21.136 992.873,64.258 949.751,21.137 949.751,21.136 949.75,21.136 949.75,21.136 949.75,21.137 909.324,61.563
		949.75,101.989 949.75,101.99 995.567,147.808 992.873,150.502 949.751,107.381 949.751,107.38 903.934,61.563 947.056,18.441
		928.19,-0.425 922.8,-0.425 941.666,18.441 	"/>
	<polygon fill="#999999" points="866.202,61.563 949.75,145.111 949.75,145.112 992.873,188.234 1033.3,147.808 949.751,64.259
		949.751,64.258 947.056,61.563 949.75,58.868 992.873,101.99 1035.995,58.868 1038.689,61.563 995.567,104.685 1035.995,145.112
		1119.544,61.563 1057.556,-0.425 1052.166,-0.425 1114.153,61.563 1035.995,139.722 1000.958,104.685 1044.08,61.563
		1035.995,53.478 992.873,96.6 949.751,53.479 949.751,53.478 949.75,53.478 949.75,53.478 949.75,53.479 941.666,61.563
		949.75,69.647 949.75,69.648 1027.909,147.808 992.873,182.844 949.751,139.723 949.751,139.722 871.592,61.563 914.714,18.441
		895.849,-0.425 890.458,-0.425 909.324,18.441 	"/>
	<polygon fill="#999999" points="887.763,61.563 949.75,123.55 949.75,123.551 992.873,166.673 1011.738,147.808 949.751,85.82
		949.751,85.819 925.495,61.563 949.75,37.307 992.873,80.429 1035.995,37.307 1060.251,61.563 1017.129,104.685 1035.995,123.551
		1097.983,61.563 1035.995,-0.425 1030.604,-0.425 1092.593,61.563 1035.995,118.161 1022.52,104.685 1065.642,61.563
		1035.995,31.917 992.873,75.039 949.751,31.917 949.751,31.917 949.75,31.917 949.75,31.917 949.75,31.917 920.104,61.563
		949.75,91.208 949.75,91.209 1006.349,147.808 992.873,161.283 949.751,118.162 949.751,118.161 893.153,61.563 936.275,18.441
		917.409,-0.425 912.02,-0.425 930.885,18.441 	"/>
	<polygon fill="#999999" points="876.982,61.563 949.75,134.331 949.75,134.332 992.873,177.454 1022.52,147.808 949.751,75.04
		949.751,75.039 936.275,61.563 949.75,48.088 992.873,91.209 1035.995,48.087 1049.471,61.563 1006.349,104.685 1035.995,134.332
		1108.764,61.563 1046.775,-0.425 1041.385,-0.425 1103.373,61.563 1035.995,128.941 1011.738,104.685 1054.86,61.563
		1035.995,42.697 992.873,85.819 949.751,42.698 949.751,42.697 949.75,42.698 949.75,42.697 949.75,42.698 930.885,61.563
		949.75,80.428 949.75,80.429 1017.129,147.808 992.873,172.063 949.751,128.942 949.751,128.941 882.373,61.563 925.495,18.441
		906.629,-0.425 901.238,-0.425 920.104,18.441 	"/>
	<polygon fill="#999999" points="577.866,258.308 596.712,277.155 475.431,398.436 432.309,355.313 432.309,360.704
		475.431,403.826 602.103,277.155 583.237,258.289 583.192,258.289 518.528,193.625 518.528,199.015 577.821,258.308 	"/>
	<polygon fill="#999999" points="556.305,258.308 575.151,277.155 475.431,376.875 432.309,333.752 432.309,339.143
		475.431,382.265 580.542,277.155 561.676,258.289 561.631,258.289 518.528,215.186 518.528,220.576 556.26,258.308 	"/>
	<polygon fill="#999999" points="567.085,258.308 585.932,277.155 475.431,387.655 432.309,344.533 432.309,349.923
		475.431,393.045 591.322,277.155 572.456,258.289 572.412,258.289 518.528,204.405 518.528,209.795 567.041,258.308 	"/>
	<polygon fill="#999999" points="545.524,258.308 564.371,277.155 475.431,366.094 432.309,322.972 432.309,328.362
		475.431,371.484 569.761,277.155 550.895,258.289 550.85,258.289 518.528,225.966 518.528,231.357 545.479,258.308 	"/>
	<polygon fill="#999999" points="623.639,18.441 604.772,-0.425 599.382,-0.425 618.249,18.441 561.65,75.039 518.528,31.917
		518.528,37.307 561.65,80.429 	"/>
	<polygon fill="#999999" points="602.078,18.441 583.211,-0.425 577.821,-0.425 596.687,18.441 561.65,53.478 518.528,10.355
		518.528,15.746 561.65,58.868 	"/>
	<polygon fill="#999999" points="591.297,18.441 572.431,-0.425 567.041,-0.425 585.907,18.441 561.65,42.697 518.528,-0.425
		518.528,4.965 561.65,48.087 	"/>
	<polygon fill="#999999" points="569.736,18.441 550.87,-0.425 545.479,-0.425 564.346,18.441 561.65,21.136 540.089,-0.425
		534.699,-0.425 561.65,26.526 	"/>
	<polygon fill="#999999" points="580.517,18.441 561.65,-0.425 556.26,-0.425 575.126,18.441 561.65,31.917 529.309,-0.425
		523.918,-0.425 561.65,37.307 	"/>
	<polygon fill="#999999" points="623.639,104.685 604.772,85.819 561.65,128.941 518.528,85.819 518.528,91.209 561.65,134.332
		604.772,91.209 618.249,104.685 561.65,161.283 518.528,118.161 518.528,123.551 561.65,166.673 	"/>
	<polygon fill="#999999" points="634.419,104.685 604.772,75.039 561.65,118.161 518.528,75.039 518.528,80.429 561.65,123.551
		604.772,80.429 629.029,104.685 561.65,172.063 518.528,128.941 518.528,134.332 561.65,177.454 	"/>
	<polygon fill="#999999" points="645.2,104.685 604.772,64.258 561.65,107.38 518.528,64.258 518.528,69.648 561.65,112.771
		604.772,69.648 639.81,104.685 561.65,182.844 518.528,139.722 518.528,145.112 561.65,188.234 	"/>
	<polygon fill="#999999" points="645.2,18.441 626.333,-0.425 620.943,-0.425 639.81,18.441 561.65,96.6 518.528,53.478
		518.528,58.868 561.65,101.99 	"/>
	<polygon fill="#999999" points="634.419,18.441 615.553,-0.425 610.163,-0.425 629.029,18.441 561.65,85.819 518.528,42.697
		518.528,48.087 561.65,91.209 	"/>
	<polygon fill="#999999" points="612.858,104.685 604.772,96.6 561.65,139.722 518.528,96.6 518.528,101.99 561.65,145.112
		604.772,101.99 607.468,104.685 561.65,150.502 518.528,107.38 518.528,112.771 561.65,155.893 	"/>
	<polygon fill="#999999" points="612.858,18.441 593.992,-0.425 588.602,-0.425 607.468,18.441 561.65,64.258 518.528,21.136
		518.528,26.526 561.65,69.648 	"/>
	<polygon fill="#999999" points="604.772,177.454 685.626,258.308 685.672,258.308 691.042,263.679 734.165,306.801
		763.812,277.155 744.945,258.289 744.901,258.289 734.139,247.527 634.419,147.808 677.542,104.685 634.419,61.563 677.542,18.441
		658.675,-0.425 653.285,-0.425 672.151,18.441 629.029,61.563 672.151,104.685 629.029,147.808 734.139,252.918 739.53,258.308
		739.574,258.308 758.421,277.155 734.165,301.411 691.042,258.289 690.998,258.289 604.772,172.063 561.65,215.186
		518.528,172.063 518.528,177.454 561.65,220.576 	"/>
	<polygon fill="#999999" points="604.772,155.893 707.188,258.308 707.232,258.308 734.165,285.24 742.25,277.155 723.383,258.289
		723.339,258.289 612.858,147.808 655.98,104.685 612.858,61.563 655.98,18.441 637.114,-0.425 631.724,-0.425 650.59,18.441
		607.468,61.563 650.59,104.685 607.468,147.808 717.968,258.308 718.013,258.308 736.859,277.155 734.165,279.85 712.603,258.289
		712.559,258.289 604.772,150.502 561.65,193.625 518.528,150.502 518.528,155.893 561.65,199.015 	"/>
	<polygon fill="#999999" points="604.772,166.673 696.408,258.308 696.452,258.308 734.165,296.021 753.03,277.155 734.165,258.289
		734.12,258.289 623.639,147.808 666.761,104.685 623.639,61.563 666.761,18.441 647.895,-0.425 642.504,-0.425 661.371,18.441
		618.249,61.563 661.371,104.685 618.249,147.808 728.749,258.308 728.793,258.308 747.64,277.155 734.165,290.63 701.823,258.289
		701.778,258.289 604.772,161.283 561.65,204.405 518.528,161.283 518.528,166.673 561.65,209.795 	"/>
	<polygon fill="#999999" points="650.59,61.563 734.139,145.112 777.263,188.234 860.812,104.685 820.385,64.258 777.263,107.38
		734.139,64.258 731.444,61.563 734.139,58.868 777.263,101.99 860.812,18.441 841.945,-0.425 836.556,-0.425 855.421,18.441
		777.263,96.6 734.139,53.478 726.054,61.563 734.139,69.648 777.263,112.771 820.385,69.648 855.421,104.685 777.263,182.844
		734.139,139.722 655.98,61.563 699.102,18.441 680.237,-0.425 674.846,-0.425 693.712,18.441 	"/>
	<polygon fill="#999999" points="661.371,61.563 734.139,134.332 777.263,177.454 850.031,104.685 820.385,75.039 777.263,118.161
		734.139,75.039 720.664,61.563 734.139,48.087 777.263,91.209 850.031,18.441 831.165,-0.425 825.774,-0.425 844.641,18.441
		777.263,85.819 734.139,42.697 715.273,61.563 734.139,80.429 777.263,123.551 820.385,80.429 844.641,104.685 777.263,172.063
		734.139,128.941 666.761,61.563 709.883,18.441 691.017,-0.425 685.626,-0.425 704.493,18.441 	"/>
	<polygon fill="#999999" points="682.931,61.563 734.139,112.771 777.263,155.893 828.47,104.685 820.385,96.6 777.263,139.722
		734.139,96.6 699.102,61.563 734.139,26.526 777.263,69.648 828.47,18.441 809.604,-0.425 804.214,-0.425 823.079,18.441
		777.263,64.258 734.139,21.136 693.712,61.563 734.139,101.99 777.263,145.112 820.385,101.99 823.079,104.685 777.263,150.502
		734.139,107.38 688.322,61.563 731.444,18.441 712.579,-0.425 707.188,-0.425 726.054,18.441 	"/>
	<polygon fill="#999999" points="672.151,61.563 734.139,123.551 777.263,166.673 839.25,104.685 820.385,85.819 777.263,128.941
		734.139,85.819 709.883,61.563 734.139,37.307 777.263,80.429 839.25,18.441 820.385,-0.425 814.994,-0.425 833.86,18.441
		777.263,75.039 734.139,31.917 704.493,61.563 734.139,91.209 777.263,134.332 820.385,91.209 833.86,104.685 777.263,161.283
		734.139,118.161 677.542,61.563 720.664,18.441 701.797,-0.425 696.408,-0.425 715.273,18.441 	"/>
	<polygon fill="#999999" points="480.841,258.308 518.553,296.021 537.419,277.155 518.553,258.289 518.508,258.289
		494.272,234.052 518.528,209.795 518.528,204.405 488.881,234.052 513.138,258.308 513.183,258.308 532.029,277.155
		518.553,290.63 486.212,258.289 486.167,258.289 432.284,204.405 432.284,209.795 480.796,258.308 	"/>
	<polygon fill="#999999" points="491.622,258.308 518.553,285.24 526.639,277.155 507.773,258.289 507.728,258.289 483.491,234.052
		518.528,199.015 518.528,193.625 478.101,234.052 502.357,258.308 502.402,258.308 521.249,277.155 518.553,279.85
		496.992,258.289 496.947,258.289 432.284,193.625 432.284,199.015 491.577,258.308 	"/>
	<polygon fill="#999999" points="470.061,258.308 518.553,306.801 548.2,277.155 529.334,258.289 529.289,258.289 518.528,247.527
		518.528,252.918 523.918,258.308 523.963,258.308 542.81,277.155 518.553,301.411 475.431,258.289 475.386,258.289
		432.284,215.186 432.284,220.576 470.016,258.308 	"/>
	<polygon fill="#999999" points="459.28,258.308 518.553,317.582 558.98,277.155 540.114,258.289 540.07,258.289 518.528,236.747
		518.528,242.137 534.699,258.308 534.744,258.308 553.59,277.155 518.553,312.191 464.65,258.289 464.605,258.289 432.284,225.966
		432.284,231.357 459.235,258.308 	"/>
	<polygon fill="#999999" points="518.528,215.186 499.662,234.052 518.528,252.918 518.528,247.527 505.052,234.052
		518.528,220.576 	"/>
	<polygon fill="#999999" points="505.052,18.441 486.187,-0.425 480.796,-0.425 499.662,18.441 475.406,42.697 432.284,-0.425
		432.284,4.965 475.406,48.087 	"/>
	<polygon fill="#999999" points="494.272,18.441 475.406,-0.425 470.016,-0.425 488.881,18.441 475.406,31.917 443.064,-0.425
		437.674,-0.425 475.406,37.307 	"/>
	<polygon fill="#999999" points="483.491,18.441 464.625,-0.425 459.235,-0.425 478.101,18.441 475.406,21.136 453.845,-0.425
		448.455,-0.425 475.406,26.526 	"/>
	<polygon fill="#999999" points="448.5,258.308 510.468,320.277 475.431,355.313 432.309,312.191 432.309,317.582 475.431,360.704
		515.858,320.277 453.87,258.289 453.825,258.289 432.284,236.747 432.284,242.137 448.455,258.308 	"/>
	<polygon fill="#999999" points="437.719,258.308 499.688,320.277 475.431,344.533 432.309,301.411 432.309,306.801
		475.431,349.923 505.078,320.277 443.089,258.289 443.044,258.289 432.284,247.527 432.284,252.918 437.674,258.308 	"/>
	<polygon fill="#999999" points="515.833,18.441 496.967,-0.425 491.577,-0.425 510.442,18.441 475.406,53.478 432.284,10.355
		432.284,15.746 475.406,58.868 	"/>
	<polygon fill="#999999" points="518.528,225.966 510.442,234.052 518.528,242.137 518.528,236.747 515.833,234.052
		518.528,231.357 	"/>
	<polygon fill="#999999" points="518.528,10.355 507.748,-0.425 502.357,-0.425 518.528,15.746 	"/>
	<polygon fill="#999999" points="518.528,26.526 518.528,21.136 475.406,64.258 432.284,21.136 432.284,26.526 475.406,69.648 	"/>
	<polygon fill="#999999" points="518.528,91.209 518.528,85.819 475.406,128.941 432.284,85.819 432.284,91.209 475.406,134.332
		"/>
	<polygon fill="#999999" points="518.528,-0.425 513.138,-0.425 518.528,4.965 	"/>
	<polygon fill="#999999" points="518.528,37.307 518.528,31.917 475.406,75.039 432.284,31.917 432.284,37.307 475.406,80.429 	"/>
	<polygon fill="#999999" points="518.528,58.868 518.528,53.478 475.406,96.6 432.284,53.478 432.284,58.868 475.406,101.99 	"/>
	<polygon fill="#999999" points="518.528,188.234 518.528,182.844 475.406,225.966 432.284,182.844 432.284,188.234
		475.406,231.357 	"/>
	<polygon fill="#999999" points="518.528,69.648 518.528,64.258 475.406,107.38 432.284,64.258 432.284,69.648 475.406,112.771 	"/>
	<polygon fill="#999999" points="518.528,80.429 518.528,75.039 475.406,118.161 432.284,75.039 432.284,80.429 475.406,123.551
		"/>
	<polygon fill="#999999" points="518.528,123.551 518.528,118.161 475.406,161.283 432.284,118.161 432.284,123.551
		475.406,166.673 	"/>
	<polygon fill="#999999" points="518.528,145.112 518.528,139.722 475.406,182.844 432.284,139.722 432.284,145.112
		475.406,188.234 	"/>
	<polygon fill="#999999" points="518.528,134.332 518.528,128.941 475.406,172.063 432.284,128.941 432.284,134.332
		475.406,177.454 	"/>
	<polygon fill="#999999" points="518.528,155.893 518.528,150.502 475.406,193.625 432.284,150.502 432.284,155.893
		475.406,199.015 	"/>
	<polygon fill="#999999" points="518.528,166.673 518.528,161.283 475.406,204.405 432.284,161.283 432.284,166.673
		475.406,209.795 	"/>
	<polygon fill="#999999" points="518.528,177.454 518.528,172.063 475.406,215.186 432.284,172.063 432.284,177.454
		475.406,220.576 	"/>
	<polygon fill="#999999" points="518.528,101.99 518.528,96.6 475.406,139.722 432.284,96.6 432.284,101.99 475.406,145.112 	"/>
	<polygon fill="#999999" points="518.528,112.771 518.528,107.38 475.406,150.502 432.284,107.38 432.284,112.771 475.406,155.893
		"/>
	<polygon fill="#999999" points="518.528,48.087 518.528,42.697 475.406,85.819 432.284,42.697 432.284,48.087 475.406,91.209 	"/>
	<polygon fill="#999999" points="259.794,58.868 300.222,18.441 281.355,-0.425 275.965,-0.425 294.831,18.441 259.794,53.478
		216.672,10.355 205.892,-0.425 200.501,-0.425 216.672,15.746 	"/>
	<polygon fill="#999999" points="432.283,215.186 413.417,234.052 432.283,252.918 432.283,247.527 418.808,234.052
		432.283,220.576 	"/>
	<polygon fill="#999999" points="432.283,225.966 424.198,234.052 432.283,242.137 432.283,236.747 429.588,234.052
		432.283,231.357 	"/>
	<polygon fill="#999999" points="259.794,48.087 289.441,18.441 270.575,-0.425 265.185,-0.425 284.051,18.441 259.794,42.697
		216.672,-0.425 211.282,-0.425 216.672,4.965 	"/>
	<polygon fill="#999999" points="397.247,18.441 378.38,-0.425 372.99,-0.425 391.856,18.441 389.161,21.136 367.6,-0.425
		362.209,-0.425 389.161,26.526 	"/>
	<polygon fill="#999999" points="418.808,18.441 399.941,-0.425 394.551,-0.425 413.417,18.441 389.161,42.697 346.039,-0.425
		340.648,-0.425 389.161,48.087 	"/>
	<polygon fill="#999999" points="408.027,18.441 389.161,-0.425 383.771,-0.425 402.637,18.441 389.161,31.917 356.819,-0.425
		351.429,-0.425 389.161,37.307 	"/>
	<polygon fill="#999999" points="278.661,18.441 259.794,-0.425 254.404,-0.425 273.27,18.441 259.794,31.917 227.453,-0.425
		222.062,-0.425 259.794,37.307 	"/>
	<polygon fill="#999999" points="429.588,18.441 410.722,-0.425 405.332,-0.425 424.198,18.441 389.161,53.478 335.258,-0.425
		329.868,-0.425 389.161,58.868 	"/>
	<polygon fill="#999999" points="267.88,18.441 249.014,-0.425 243.624,-0.425 262.49,18.441 259.794,21.136 238.233,-0.425
		232.843,-0.425 259.794,26.526 	"/>
	<polygon fill="#999999" points="432.283,10.355 421.503,-0.425 416.112,-0.425 432.283,15.746 	"/>
	<polygon fill="#999999" points="432.283,53.478 259.794,225.966 216.672,182.844 173.55,139.722 165.465,147.808 208.587,190.93
		165.465,234.052 189.721,258.308 189.766,258.308 208.612,277.155 165.49,320.277 216.698,371.484 259.82,414.607 267.905,406.521
		216.698,355.313 181.661,320.277 216.698,285.24 259.82,328.362 302.942,285.24 337.979,320.277 294.856,363.399 302.942,371.484
		354.149,320.277 292.162,258.289 292.117,258.289 267.88,234.052 302.917,199.015 362.209,258.308 362.254,258.308 389.187,285.24
		397.272,277.155 378.406,258.289 378.361,258.289 311.002,190.93 389.161,112.771 424.198,147.808 381.076,190.93 389.161,199.015
		432.283,155.893 432.283,150.502 389.161,193.625 386.466,190.93 429.588,147.808 389.161,107.38 305.612,190.93 372.99,258.308
		373.035,258.308 391.882,277.155 389.187,279.85 367.625,258.289 367.581,258.289 302.917,193.625 262.49,234.052 286.746,258.308
		286.791,258.308 348.759,320.277 302.942,366.094 300.247,363.399 343.369,320.277 302.942,279.85 259.82,322.972 216.698,279.85
		176.271,320.277 216.698,360.704 262.515,406.521 259.82,409.216 216.698,366.094 170.88,320.277 214.003,277.155 195.137,258.289
		195.092,258.289 170.855,234.052 213.978,190.93 170.855,147.808 173.55,145.112 216.672,188.234 259.794,231.357 432.283,58.868
		"/>
	<polygon fill="#999999" points="432.283,64.258 391.856,104.685 432.283,145.112 432.283,139.722 397.247,104.685 432.283,69.648
		"/>
	<polygon fill="#999999" points="432.283,42.697 259.794,215.186 216.672,172.063 173.55,128.941 154.684,147.808 197.807,190.93
		154.684,234.052 178.94,258.308 178.985,258.308 197.832,277.155 154.709,320.277 216.698,382.265 259.82,425.387 278.686,406.521
		216.698,344.533 192.441,320.277 216.698,296.021 259.82,339.143 302.942,296.021 327.198,320.277 284.076,363.399
		302.942,382.265 364.93,320.277 302.942,258.289 302.897,258.289 278.661,234.052 302.917,209.795 351.429,258.308
		351.474,258.308 389.187,296.021 408.052,277.155 389.187,258.289 389.142,258.289 321.783,190.93 389.161,123.551
		413.417,147.808 370.295,190.93 389.161,209.795 432.283,166.673 432.283,161.283 389.161,204.405 375.686,190.93 418.808,147.808
		389.161,118.161 316.393,190.93 383.771,258.308 383.816,258.308 402.662,277.155 389.187,290.63 356.845,258.289 356.8,258.289
		302.917,204.405 273.27,234.052 297.526,258.308 297.571,258.308 359.54,320.277 302.942,376.875 289.466,363.399 332.588,320.277
		302.942,290.63 259.82,333.752 216.698,290.63 187.051,320.277 216.698,349.923 273.295,406.521 259.82,419.997 216.698,376.875
		160.1,320.277 203.222,277.155 184.356,258.289 184.311,258.289 160.075,234.052 203.197,190.93 160.075,147.808 173.55,134.332
		216.672,177.454 259.794,220.576 432.283,48.087 	"/>
	<polygon fill="#999999" points="432.283,75.039 402.637,104.685 432.283,134.332 432.283,128.941 408.027,104.685 432.283,80.429
		"/>
	<polygon fill="#999999" points="432.283,31.917 259.794,204.405 216.672,161.283 173.55,118.161 143.904,147.808 187.026,190.93
		143.904,234.052 168.16,258.308 168.205,258.308 187.051,277.155 143.929,320.277 216.698,393.045 259.82,436.168 289.466,406.521
		216.698,333.752 203.222,320.277 216.698,306.801 259.82,349.923 302.942,306.801 316.418,320.277 273.295,363.399
		302.942,393.045 375.711,320.277 313.723,258.289 313.678,258.289 289.441,234.052 302.917,220.576 340.648,258.308
		340.693,258.308 389.187,306.801 418.833,277.155 399.967,258.289 399.922,258.289 332.563,190.93 389.161,134.332
		402.637,147.808 359.515,190.93 389.161,220.576 432.283,177.454 432.283,172.063 389.161,215.186 364.905,190.93 408.027,147.808
		389.161,128.941 327.173,190.93 394.551,258.308 394.596,258.308 413.443,277.155 389.187,301.411 346.064,258.289 346.02,258.289
		302.917,215.186 284.051,234.052 308.307,258.308 308.352,258.308 370.32,320.277 302.942,387.655 278.686,363.399
		321.808,320.277 302.942,301.411 259.82,344.533 216.698,301.411 197.832,320.277 216.698,339.143 284.076,406.521 259.82,430.777
		216.698,387.655 149.319,320.277 192.441,277.155 173.576,258.289 173.531,258.289 149.294,234.052 192.416,190.93
		149.294,147.808 173.55,123.551 216.672,166.673 259.794,209.795 432.283,37.307 	"/>
	<polygon fill="#999999" points="432.283,-0.425 426.893,-0.425 432.283,4.965 	"/>
	<polygon fill="#999999" points="432.283,21.136 259.794,193.625 216.672,150.502 173.55,107.38 133.123,147.808 176.246,190.93
		133.123,234.052 157.379,258.308 157.424,258.308 176.271,277.155 133.148,320.277 216.698,403.826 259.82,446.948
		300.247,406.521 216.698,322.972 214.003,320.277 216.698,317.582 259.82,360.704 302.942,317.582 305.637,320.277
		262.515,363.399 302.942,403.826 386.491,320.277 324.503,258.289 324.458,258.289 300.222,234.052 302.917,231.357
		329.868,258.308 329.913,258.308 389.187,317.582 429.614,277.155 410.748,258.289 410.703,258.289 343.344,190.93
		389.161,145.112 391.856,147.808 348.734,190.93 389.161,231.357 432.283,188.234 432.283,182.844 389.161,225.966 354.124,190.93
		397.247,147.808 389.161,139.722 337.954,190.93 405.332,258.308 405.377,258.308 424.223,277.155 389.187,312.191
		335.284,258.289 335.239,258.289 302.917,225.966 294.831,234.052 319.087,258.308 319.132,258.308 381.101,320.277
		302.942,398.436 267.905,363.399 311.027,320.277 302.942,312.191 259.82,355.313 216.698,312.191 208.612,320.277
		216.698,328.362 294.856,406.521 259.82,441.558 216.698,398.436 138.539,320.277 181.661,277.155 162.795,258.289 162.75,258.289
		138.513,234.052 181.636,190.93 138.513,147.808 173.55,112.771 216.672,155.893 259.794,199.015 432.283,26.526 	"/>
	<polygon fill="#999999" points="432.283,96.6 424.198,104.685 432.283,112.771 432.283,107.38 429.588,104.685 432.283,101.99 	"/>
	<polygon fill="#999999" points="432.283,85.819 413.417,104.685 432.283,123.551 432.283,118.161 418.808,104.685 432.283,91.209
		"/>
	<polygon fill="#999999" points="87.306,188.234 90.001,190.93 46.879,234.052 71.135,258.308 71.18,258.308 90.026,277.155
		44.209,322.972 1.087,279.85 1.087,285.24 44.209,328.362 95.417,277.155 76.551,258.289 76.506,258.289 52.269,234.052
		95.391,190.93 87.306,182.844 44.184,225.966 1.062,182.844 1.062,188.234 44.184,231.357 	"/>
	<polygon fill="#999999" points="106.172,18.441 87.306,-0.425 81.916,-0.425 100.782,18.441 44.184,75.039 1.062,31.917
		1.062,37.307 44.184,80.429 	"/>
	<polygon fill="#999999" points="116.952,104.685 87.306,75.039 44.184,118.161 1.062,75.039 1.062,80.429 44.184,123.551
		87.306,80.429 111.562,104.685 44.184,172.063 1.062,128.941 1.062,134.332 44.184,177.454 	"/>
	<polygon fill="#999999" points="95.391,104.685 87.306,96.6 44.184,139.722 1.062,96.6 1.062,101.99 44.184,145.112 87.306,101.99
		90.001,104.685 44.184,150.502 1.062,107.38 1.062,112.771 44.184,155.893 	"/>
	<polygon fill="#999999" points="116.952,18.441 98.086,-0.425 92.696,-0.425 111.562,18.441 44.184,85.819 1.062,42.697
		1.062,48.087 44.184,91.209 	"/>
	<polygon fill="#999999" points="127.733,18.441 108.867,-0.425 103.477,-0.425 122.343,18.441 44.184,96.6 1.062,53.478
		1.062,58.868 44.184,101.99 	"/>
	<polygon fill="#999999" points="127.733,104.685 87.306,64.258 44.184,107.38 1.062,64.258 1.062,69.648 44.184,112.771
		87.306,69.648 122.343,104.685 44.184,182.844 1.062,139.722 1.062,145.112 44.184,188.234 	"/>
	<polygon fill="#999999" points="87.306,177.454 100.782,190.93 57.659,234.052 81.916,258.308 81.96,258.308 100.807,277.155
		44.209,333.752 1.087,290.63 1.087,296.021 44.209,339.143 106.197,277.155 87.331,258.289 87.286,258.289 63.05,234.052
		106.172,190.93 87.306,172.063 44.184,215.186 1.062,172.063 1.062,177.454 44.184,220.576 	"/>
	<polygon fill="#999999" points="87.306,166.673 111.562,190.93 68.44,234.052 92.696,258.308 92.741,258.308 111.587,277.155
		44.209,344.533 1.087,301.411 1.087,306.801 44.209,349.923 116.978,277.155 98.112,258.289 98.067,258.289 73.83,234.052
		116.952,190.93 87.306,161.283 44.184,204.405 1.062,161.283 1.062,166.673 44.184,209.795 	"/>
	<polygon fill="#999999" points="95.391,18.441 76.525,-0.425 71.135,-0.425 90.001,18.441 44.184,64.258 1.062,21.136
		1.062,26.526 44.184,69.648 	"/>
	<polygon fill="#999999" points="87.306,155.893 122.343,190.93 79.22,234.052 103.477,258.308 103.521,258.308 122.368,277.155
		44.209,355.313 1.087,312.191 1.087,317.582 44.209,360.704 127.758,277.155 108.892,258.289 108.847,258.289 84.611,234.052
		127.733,190.93 87.306,150.502 44.184,193.625 1.062,150.502 1.062,155.893 44.184,199.015 	"/>
	<polygon fill="#999999" points="49.619,258.308 68.465,277.155 44.209,301.411 1.087,258.289 1.087,263.679 44.209,306.801
		73.855,277.155 54.99,258.289 54.945,258.289 1.062,204.405 1.062,209.795 49.574,258.308 	"/>
	<polygon fill="#999999" points="17.277,258.308 44.209,285.24 52.294,277.155 33.428,258.289 33.383,258.289 1.062,225.966
		1.062,231.357 28.013,258.308 28.058,258.308 46.904,277.155 44.209,279.85 22.648,258.289 22.603,258.289 1.062,236.747
		1.062,242.137 17.232,258.308 	"/>
	<polygon fill="#999999" points="60.399,258.308 79.246,277.155 44.209,312.191 1.087,269.069 1.087,274.459 44.209,317.582
		84.636,277.155 65.77,258.289 65.725,258.289 1.062,193.625 1.062,199.015 60.354,258.308 	"/>
	<polygon fill="#999999" points="6.497,258.308 44.209,296.021 63.075,277.155 44.209,258.289 44.164,258.289 1.062,215.186
		1.062,220.576 38.793,258.308 38.838,258.308 57.685,277.155 44.209,290.63 11.867,258.289 11.822,258.289 1.062,247.527
		1.062,252.918 6.452,258.308 	"/>
	<polygon fill="#999999" points="106.172,104.685 87.306,85.819 44.184,128.941 1.062,85.819 1.062,91.209 44.184,134.332
		87.306,91.209 100.782,104.685 44.184,161.283 1.062,118.161 1.062,123.551 44.184,166.673 	"/>
	<polygon fill="#999999" points="84.611,18.441 65.745,-0.425 60.354,-0.425 79.22,18.441 44.184,53.478 1.062,10.355 1.062,15.746
		44.184,58.868 	"/>
	<polygon fill="#999999" points="52.269,18.441 33.403,-0.425 28.013,-0.425 46.879,18.441 44.184,21.136 22.623,-0.425
		17.232,-0.425 44.184,26.526 	"/>
	<polygon fill="#999999" points="63.05,18.441 44.184,-0.425 38.793,-0.425 57.659,18.441 44.184,31.917 11.842,-0.425
		6.452,-0.425 44.184,37.307 	"/>
	<polygon fill="#999999" points="73.83,18.441 54.964,-0.425 49.574,-0.425 68.44,18.441 44.184,42.697 1.062,-0.425 1.062,4.965
		44.184,48.087 	"/>
	<polygon fill="#999999" points="133.123,61.563 216.672,145.112 259.794,188.234 300.222,147.808 216.672,64.258 213.978,61.563
		216.672,58.868 259.794,101.99 302.917,58.868 305.612,61.563 262.49,104.685 302.917,145.112 386.466,61.563 324.478,-0.425
		319.087,-0.425 381.076,61.563 302.917,139.722 267.88,104.685 311.002,61.563 302.917,53.478 259.794,96.6 216.672,53.478
		208.587,61.563 216.672,69.648 294.831,147.808 259.794,182.844 216.672,139.722 138.513,61.563 181.636,18.441 162.77,-0.425
		157.379,-0.425 176.246,18.441 	"/>
	<polygon fill="#999999" points="154.684,61.563 216.672,123.551 259.794,166.673 278.661,147.808 216.672,85.819 192.416,61.563
		216.672,37.307 259.794,80.429 302.917,37.307 327.173,61.563 284.051,104.685 302.917,123.551 364.905,61.563 302.917,-0.425
		297.526,-0.425 359.515,61.563 302.917,118.161 289.441,104.685 332.563,61.563 302.917,31.917 259.794,75.039 216.672,31.917
		187.026,61.563 216.672,91.209 273.27,147.808 259.794,161.283 216.672,118.161 160.075,61.563 203.197,18.441 184.331,-0.425
		178.94,-0.425 197.807,18.441 	"/>
	<polygon fill="#999999" points="165.465,61.563 216.672,112.771 259.794,155.893 267.88,147.808 216.672,96.6 181.636,61.563
		216.672,26.526 259.794,69.648 302.917,26.526 337.954,61.563 294.831,104.685 302.917,112.771 354.124,61.563 292.136,-0.425
		286.746,-0.425 348.734,61.563 302.917,107.38 300.222,104.685 343.344,61.563 302.917,21.136 259.794,64.258 216.672,21.136
		176.246,61.563 216.672,101.99 262.49,147.808 259.794,150.502 216.672,107.38 170.855,61.563 213.978,18.441 195.111,-0.425
		189.721,-0.425 208.587,18.441 	"/>
	<polygon fill="#999999" points="143.904,61.563 216.672,134.332 259.794,177.454 289.441,147.808 216.672,75.039 203.197,61.563
		216.672,48.087 259.794,91.209 302.917,48.087 316.393,61.563 273.27,104.685 302.917,134.332 375.686,61.563 313.697,-0.425
		308.307,-0.425 370.295,61.563 302.917,128.941 278.661,104.685 321.783,61.563 302.917,42.697 259.794,85.819 216.672,42.697
		197.807,61.563 216.672,80.429 284.051,147.808 259.794,172.063 216.672,128.941 149.294,61.563 192.416,18.441 173.55,-0.425
		168.16,-0.425 187.026,18.441 	"/>
	<polygon fill="#999999" points="1.087,403.826 44.209,446.948 127.758,363.399 87.331,322.972 44.209,366.094 1.087,322.972
		1.087,328.362 44.209,371.484 87.331,328.362 122.368,363.399 44.209,441.558 1.087,398.436 	"/>
	<polygon fill="#999999" points="1.087,393.045 44.209,436.168 116.978,363.399 87.331,333.752 44.209,376.875 1.087,333.752
		1.087,339.143 44.209,382.265 87.331,339.143 111.587,363.399 44.209,430.777 1.087,387.655 	"/>
	<polygon fill="#999999" points="1.087,366.094 1.087,371.484 44.209,414.607 95.417,363.399 87.331,355.313 44.209,398.436
		1.087,355.313 1.087,360.704 44.209,403.826 87.331,360.704 90.026,363.399 44.209,409.216 	"/>
	<polygon fill="#999999" points="1.087,382.265 44.209,425.387 106.197,363.399 87.331,344.533 44.209,387.655 1.087,344.533
		1.087,349.923 44.209,393.045 87.331,349.923 100.807,363.399 44.209,419.997 1.087,376.875 	"/>
	<polygon fill="#999999" points="1.087,468.509 49.599,517.021 54.99,517.021 1.087,463.119 	"/>
	<path fill="#999999" d="M176.246,234.052l24.256,24.256h0.045l16.151,16.151l43.122,43.122l40.427-40.427l-18.866-18.866h-0.045
		l-64.664-64.664L176.246,234.052z M276.01,258.308l18.846,18.847l-35.037,35.037l-43.122-43.122l-10.78-10.781h-0.045
		l-24.237-24.237l35.037-35.037l59.293,59.293H276.01z"/>
	<path fill="#999999" d="M187.026,234.052l24.256,24.256h0.045l5.371,5.371l43.122,43.122l29.646-29.646l-18.866-18.866h-0.045
		l-53.883-53.883L187.026,234.052z M265.229,258.308l18.847,18.847l-24.256,24.256l-43.122-43.123h-0.045l-24.237-24.237
		l24.256-24.256l48.512,48.513H265.229z"/>
	<polygon fill="#999999" points="176.271,492.766 200.527,517.021 205.917,517.021 181.661,492.766 216.698,457.729
		275.991,517.021 281.381,517.021 216.698,452.339 	"/>
	<polygon fill="#999999" points="197.832,492.766 216.698,511.632 222.088,517.021 227.478,517.021 216.698,506.241
		203.222,492.766 216.698,479.29 254.43,517.021 259.82,517.021 216.698,473.9 	"/>
	<polygon fill="#999999" points="187.051,492.766 211.308,517.021 216.698,517.021 192.441,492.766 216.698,468.509 265.21,517.021
		270.601,517.021 216.698,463.119 	"/>
	<polygon fill="#999999" points="116.978,449.644 87.331,419.997 44.209,463.119 1.087,419.997 1.087,425.387 44.209,468.509
		87.331,425.387 111.587,449.644 68.465,492.766 92.722,517.021 98.112,517.021 73.855,492.766 	"/>
	<polygon fill="#999999" points="1.087,457.729 60.38,517.021 65.77,517.021 1.087,452.339 	"/>
	<polygon fill="#999999" points="106.197,449.644 87.331,430.777 44.209,473.9 1.087,430.777 1.087,436.168 44.209,479.29
		87.331,436.168 100.807,449.644 57.685,492.766 81.941,517.021 87.331,517.021 63.075,492.766 	"/>
	<polygon fill="#999999" points="1.087,500.851 17.258,517.021 22.648,517.021 1.087,495.461 	"/>
	<polygon fill="#999999" points="1.087,490.071 28.038,517.021 33.428,517.021 1.087,484.68 	"/>
	<polygon fill="#999999" points="1.087,479.29 38.819,517.021 44.209,517.021 1.087,473.9 	"/>
	<polygon fill="#999999" points="95.417,449.644 87.331,441.558 44.209,484.68 1.087,441.558 1.087,446.948 44.209,490.071
		87.331,446.948 90.026,449.644 46.904,492.766 71.16,517.021 76.551,517.021 52.294,492.766 	"/>
	<polygon fill="#999999" points="170.88,449.644 127.758,406.521 170.88,363.399 127.758,320.277 170.88,277.155 152.015,258.289
		151.97,258.289 127.733,234.052 170.855,190.93 127.733,147.808 170.855,104.685 127.733,61.563 170.855,18.441 151.989,-0.425
		146.599,-0.425 165.465,18.441 122.343,61.563 165.465,104.685 122.343,147.808 165.465,190.93 122.343,234.052 146.599,258.308
		146.644,258.308 165.49,277.155 122.368,320.277 165.49,363.399 122.368,406.521 165.49,449.644 122.368,492.766 146.624,517.021
		152.015,517.021 127.758,492.766 	"/>
	<polygon fill="#999999" points="208.612,492.766 216.698,500.851 232.869,517.021 238.259,517.021 216.698,495.461
		214.003,492.766 216.698,490.071 243.649,517.021 249.039,517.021 216.698,484.68 	"/>
	<polygon fill="#999999" points="1.087,511.632 6.477,517.021 11.867,517.021 1.087,506.241 	"/>
	<polygon fill="#999999" points="127.758,449.644 87.331,409.216 44.209,452.339 1.087,409.216 1.087,414.607 44.209,457.729
		87.331,414.607 122.368,449.644 79.246,492.766 103.502,517.021 108.892,517.021 84.636,492.766 	"/>
	<polygon fill="#999999" points="160.1,449.644 116.978,406.521 160.1,363.399 116.978,320.277 160.1,277.155 141.234,258.289
		141.189,258.289 116.952,234.052 160.075,190.93 116.952,147.808 160.075,104.685 116.952,61.563 160.075,18.441 141.208,-0.425
		135.818,-0.425 154.684,18.441 111.562,61.563 154.684,104.685 111.562,147.808 154.684,190.93 111.562,234.052 135.818,258.308
		135.863,258.308 154.709,277.155 111.587,320.277 154.709,363.399 111.587,406.521 154.709,449.644 111.587,492.766
		135.844,517.021 141.234,517.021 116.978,492.766 	"/>
	<polygon fill="#999999" points="138.539,449.644 95.417,406.521 138.539,363.399 95.417,320.277 138.539,277.155 119.673,258.289
		119.628,258.289 95.391,234.052 138.513,190.93 95.391,147.808 138.513,104.685 95.391,61.563 138.513,18.441 119.647,-0.425
		114.257,-0.425 133.123,18.441 90.001,61.563 133.123,104.685 90.001,147.808 133.123,190.93 90.001,234.052 114.257,258.308
		114.302,258.308 133.148,277.155 90.026,320.277 133.148,363.399 90.026,406.521 133.148,449.644 90.026,492.766 114.283,517.021
		119.673,517.021 95.417,492.766 	"/>
	<polygon fill="#999999" points="149.319,449.644 106.197,406.521 149.319,363.399 106.197,320.277 149.319,277.155
		130.454,258.289 130.409,258.289 106.172,234.052 149.294,190.93 106.172,147.808 149.294,104.685 106.172,61.563 149.294,18.441
		130.428,-0.425 125.038,-0.425 143.904,18.441 100.782,61.563 143.904,104.685 100.782,147.808 143.904,190.93 100.782,234.052
		125.038,258.308 125.083,258.308 143.929,277.155 100.807,320.277 143.929,363.399 100.807,406.521 143.929,449.644
		100.807,492.766 125.063,517.021 130.454,517.021 106.197,492.766 	"/>
	<polygon fill="#999999" points="432.309,393.045 432.309,387.655 408.052,363.399 432.309,339.143 432.309,333.752
		402.662,363.399 	"/>
	<polygon fill="#999999" points="432.309,403.826 432.309,398.436 397.272,363.399 432.309,328.362 432.309,322.972
		391.882,363.399 	"/>
	<polygon fill="#999999" points="432.309,382.265 432.309,376.875 418.833,363.399 432.309,349.923 432.309,344.533
		413.443,363.399 	"/>
	<polygon fill="#999999" points="216.698,441.558 173.576,398.436 165.49,406.521 208.612,449.644 165.49,492.766 189.747,517.021
		195.137,517.021 170.88,492.766 214.003,449.644 170.88,406.521 173.576,403.826 216.698,446.948 259.82,490.071 432.309,317.582
		432.309,312.191 259.82,484.68 	"/>
	<path fill="#999999" d="M208.587,234.052l8.085,8.085l16.171,16.171h0.045l26.932,26.932l8.085-8.085l-18.866-18.866h-0.045
		l-32.322-32.322L208.587,234.052z M243.668,258.308l18.847,18.847l-2.695,2.695l-21.561-21.561h-0.045l-21.542-21.542l-2.695-2.695
		l2.695-2.695l26.951,26.951H243.668z"/>
	<path fill="#999999" d="M197.807,234.052l18.866,18.866l5.39,5.39h0.045l37.712,37.712l18.866-18.866l-18.866-18.866h-0.045
		l-43.103-43.103L197.807,234.052z M254.449,258.308l18.846,18.847L259.82,290.63l-32.342-32.342h-0.045l-10.761-10.761
		l-13.476-13.476l13.476-13.476l37.732,37.732H254.449z"/>
	<polygon fill="#999999" points="421.483,258.289 397.247,234.052 432.283,199.015 432.283,193.625 391.856,234.052
		416.112,258.308 416.157,258.308 432.309,274.459 432.309,269.069 421.528,258.289 	"/>
	<polygon fill="#999999" points="216.698,430.777 173.576,387.655 154.709,406.521 197.832,449.644 154.709,492.766
		178.966,517.021 184.356,517.021 160.1,492.766 203.222,449.644 160.1,406.521 173.576,393.045 216.698,436.168 259.82,479.29
		432.309,306.801 432.309,301.411 259.82,473.9 	"/>
	<polygon fill="#999999" points="432.309,371.484 432.309,366.094 429.614,363.399 432.309,360.704 432.309,355.313
		424.223,363.399 	"/>
	<polygon fill="#999999" points="408.027,234.052 432.283,209.795 432.283,204.405 402.637,234.052 426.893,258.308
		426.938,258.308 432.309,263.679 432.309,258.289 432.264,258.289 	"/>
	<polygon fill="#999999" points="216.698,419.997 173.576,376.875 143.929,406.521 187.051,449.644 143.929,492.766
		168.186,517.021 173.576,517.021 149.319,492.766 192.441,449.644 149.319,406.521 173.576,382.265 216.698,425.387
		259.82,468.509 432.309,296.021 432.309,290.63 259.82,463.119 	"/>
	<polygon fill="#999999" points="216.698,409.216 173.576,366.094 133.148,406.521 176.271,449.644 133.148,492.766
		157.405,517.021 162.795,517.021 138.539,492.766 181.661,449.644 138.539,406.521 173.576,371.484 216.698,414.607
		259.82,457.729 432.309,285.24 432.309,279.85 259.82,452.339 	"/>
	<polygon fill="#999999" points="262.515,492.766 286.771,517.021 292.162,517.021 267.905,492.766 302.942,457.729
		362.235,517.021 367.625,517.021 302.942,452.339 	"/>
	<polygon fill="#999999" points="432.309,500.851 432.309,495.461 429.614,492.766 432.309,490.071 432.309,484.68 424.223,492.766
			"/>
	<polygon fill="#999999" points="273.295,492.766 297.552,517.021 302.942,517.021 278.686,492.766 302.942,468.509
		351.455,517.021 356.845,517.021 302.942,463.119 	"/>
	<polygon fill="#999999" points="294.856,492.766 319.113,517.021 324.503,517.021 300.247,492.766 302.942,490.071
		329.894,517.021 335.284,517.021 302.942,484.68 	"/>
	<polygon fill="#999999" points="284.076,492.766 308.333,517.021 313.723,517.021 289.466,492.766 302.942,479.29 340.674,517.021
		346.064,517.021 302.942,473.9 	"/>
	<polygon fill="#999999" points="432.309,511.632 432.309,506.241 418.833,492.766 432.309,479.29 432.309,473.9 413.443,492.766
		"/>
	<polygon fill="#999999" points="426.918,517.021 432.309,517.021 408.052,492.766 432.309,468.509 432.309,463.119
		402.662,492.766 	"/>
	<polygon fill="#999999" points="375.711,449.644 418.833,406.521 389.187,376.875 316.418,449.644 383.796,517.021
		389.187,517.021 321.808,449.644 389.187,382.265 413.443,406.521 370.32,449.644 389.187,468.509 432.309,425.387
		432.309,419.997 389.187,463.119 	"/>
	<polygon fill="#999999" points="364.93,449.644 408.052,406.521 389.187,387.655 327.198,449.644 394.577,517.021 399.967,517.021
		332.588,449.644 389.187,393.045 402.662,406.521 359.54,449.644 389.187,479.29 432.309,436.168 432.309,430.777 389.187,473.9
		"/>
	<polygon fill="#999999" points="386.491,449.644 429.614,406.521 389.187,366.094 305.637,449.644 373.016,517.021
		378.406,517.021 311.027,449.644 389.187,371.484 424.223,406.521 381.101,449.644 389.187,457.729 432.309,414.607
		432.309,409.216 389.187,452.339 	"/>
	<polygon fill="#999999" points="416.138,517.021 421.528,517.021 397.272,492.766 432.309,457.729 432.309,452.339
		391.882,492.766 	"/>
	<polygon fill="#999999" points="354.149,449.644 397.272,406.521 389.187,398.436 337.979,449.644 405.357,517.021
		410.748,517.021 343.369,449.644 389.187,403.826 391.882,406.521 348.759,449.644 389.187,490.071 432.309,446.948
		432.309,441.558 389.187,484.68 	"/>
	<polygon fill="#999999" points="604.772,188.234 674.846,258.308 674.891,258.308 691.042,274.459 734.165,317.582
		774.592,277.155 755.726,258.289 755.682,258.289 734.139,236.747 645.2,147.808 688.322,104.685 645.2,61.563 688.322,18.441
		669.456,-0.425 664.066,-0.425 682.931,18.441 639.81,61.563 682.931,104.685 639.81,147.808 734.139,242.137 750.31,258.308
		750.354,258.308 769.201,277.155 734.165,312.191 691.042,269.069 680.262,258.289 680.217,258.289 604.772,182.844
		561.65,225.966 518.528,182.844 518.528,188.234 561.65,231.357 	"/>
	<polygon fill="#999999" points="432.309,500.851 448.48,517.021 453.87,517.021 432.309,495.461 	"/>
	<path fill="#999999" d="M623.664,406.521l-61.988-61.988l-18.866,18.866l61.988,61.988L623.664,406.521z M561.676,349.923
		l56.598,56.598l-13.476,13.476L548.2,363.399L561.676,349.923z"/>
	<path fill="#999999" d="M645.225,406.521l-83.549-83.549l-40.427,40.427l83.549,83.549L645.225,406.521z M561.676,328.362
		l78.159,78.159l-35.037,35.037l-78.159-78.159L561.676,328.362z"/>
	<path fill="#999999" d="M634.444,406.521l-72.769-72.769l-29.646,29.646l72.769,72.769L634.444,406.521z M561.676,339.143
		l67.378,67.378l-24.256,24.256l-67.378-67.378L561.676,339.143z"/>
	<path fill="#999999" d="M612.883,406.521l-51.208-51.208l-8.085,8.085l51.208,51.208L612.883,406.521z M561.676,360.704
		l45.817,45.817l-2.695,2.695l-45.817-45.817L561.676,360.704z"/>
	<polygon fill="#999999" points="432.309,457.729 491.602,517.021 496.992,517.021 432.309,452.339 	"/>
	<polygon fill="#999999" points="432.309,468.509 480.821,517.021 486.212,517.021 432.309,463.119 	"/>
	<polygon fill="#999999" points="432.309,446.948 502.382,517.021 507.773,517.021 432.309,441.558 	"/>
	<polygon fill="#999999" points="432.309,436.168 513.163,517.021 518.553,517.021 432.309,430.777 	"/>
	<polygon fill="#999999" points="432.309,425.387 523.944,517.021 529.334,517.021 432.309,419.997 	"/>
	<polygon fill="#999999" points="432.309,279.85 432.309,285.24 475.431,328.362 483.517,320.277 432.309,269.069 432.309,274.459
		478.126,320.277 475.431,322.972 	"/>
	<polygon fill="#999999" points="432.309,479.29 470.041,517.021 475.431,517.021 432.309,473.9 	"/>
	<polygon fill="#999999" points="432.309,511.632 437.699,517.021 443.089,517.021 432.309,506.241 	"/>
	<polygon fill="#999999" points="432.309,296.021 475.431,339.143 494.297,320.277 432.309,258.289 432.309,263.679
		488.907,320.277 475.431,333.752 432.309,290.63 	"/>
	<polygon fill="#999999" points="432.309,490.071 459.26,517.021 464.65,517.021 432.309,484.68 	"/>
	<polygon fill="#999999" points="432.309,414.607 534.724,517.021 540.114,517.021 432.309,409.216 	"/>
	<polygon fill="#999999" points="569.761,449.644 561.676,441.558 518.553,484.68 483.517,449.644 526.639,406.521 518.553,398.436
		475.431,441.558 432.309,398.436 432.309,403.826 475.431,446.948 518.553,403.826 521.249,406.521 478.126,449.644
		518.553,490.071 561.676,446.948 564.371,449.644 521.249,492.766 545.505,517.021 550.895,517.021 526.639,492.766 	"/>
	<polygon fill="#999999" points="629.054,492.766 653.311,517.021 658.7,517.021 634.444,492.766 647.92,479.29 685.653,517.021
		691.042,517.021 647.92,473.9 	"/>
	<polygon fill="#999999" points="647.92,452.339 607.493,492.766 631.749,517.021 637.14,517.021 612.883,492.766 647.92,457.729
		691.042,500.851 707.212,517.021 712.603,517.021 691.042,495.461 	"/>
	<polygon fill="#999999" points="647.92,463.119 618.273,492.766 642.53,517.021 647.92,517.021 623.664,492.766 647.92,468.509
		691.042,511.632 696.432,517.021 701.823,517.021 691.042,506.241 	"/>
	<polygon fill="#999999" points="580.542,449.644 561.676,430.777 518.553,473.9 494.297,449.644 537.419,406.521 518.553,387.655
		475.431,430.777 432.309,387.655 432.309,393.045 475.431,436.168 518.553,393.045 532.029,406.521 488.907,449.644
		518.553,479.29 561.676,436.168 575.151,449.644 532.029,492.766 556.285,517.021 561.676,517.021 537.419,492.766 	"/>
	<polygon fill="#999999" points="591.322,449.644 561.676,419.997 518.553,463.119 505.078,449.644 548.2,406.521 518.553,376.875
		475.431,419.997 432.309,376.875 432.309,382.265 475.431,425.387 518.553,382.265 542.81,406.521 499.688,449.644
		518.553,468.509 561.676,425.387 585.932,449.644 542.81,492.766 567.066,517.021 572.456,517.021 548.2,492.766 	"/>
	<polygon fill="#999999" points="639.834,492.766 664.09,517.021 669.481,517.021 645.225,492.766 647.92,490.071 674.872,517.021
		680.262,517.021 647.92,484.68 	"/>
	<polygon fill="#999999" points="602.103,449.644 561.676,409.216 518.553,452.339 515.858,449.644 558.98,406.521 518.553,366.094
		475.431,409.216 432.309,366.094 432.309,371.484 475.431,414.607 518.553,371.484 553.59,406.521 510.468,449.644
		518.553,457.729 561.676,414.607 596.712,449.644 553.59,492.766 577.846,517.021 583.237,517.021 558.98,492.766 	"/>
	<polygon fill="#999999" points="691.042,393.045 734.165,436.168 777.287,393.045 820.409,436.168 850.056,406.521
		777.287,333.752 734.165,376.875 691.042,333.752 647.92,376.875 634.444,363.399 677.567,320.277 647.92,290.63 604.798,333.752
		591.322,320.277 634.444,277.155 615.578,258.289 615.534,258.289 591.297,234.052 604.772,220.576 642.504,258.308
		642.549,258.308 691.042,306.801 734.165,349.923 806.934,277.155 788.067,258.289 788.023,258.289 734.139,204.405
		677.542,147.808 691.017,134.332 734.139,177.454 777.263,220.576 820.385,177.454 833.86,190.93 790.738,234.052 814.994,258.308
		815.038,258.308 833.885,277.155 790.763,320.277 820.409,349.923 863.531,306.801 877.007,320.277 833.885,363.399
		863.531,393.045 906.653,349.923 949.776,393.045 992.898,349.923 1079.143,436.168 1108.789,406.521 992.898,290.63
		949.776,333.752 906.653,290.63 874.312,258.289 874.268,258.289 850.031,234.052 893.153,190.93 850.031,147.808 893.153,104.685
		850.031,61.563 893.153,18.441 874.287,-0.425 868.896,-0.425 887.763,18.441 844.641,61.563 887.763,104.685 844.641,147.808
		887.763,190.93 844.641,234.052 868.896,258.308 868.941,258.308 906.653,296.021 949.776,339.143 992.898,296.021
		1103.398,406.521 1079.143,430.777 992.898,344.533 949.776,387.655 906.653,344.533 863.531,387.655 839.275,363.399
		882.397,320.277 863.531,301.411 820.409,344.533 796.152,320.277 839.275,277.155 820.409,258.289 820.365,258.289
		796.128,234.052 839.25,190.93 820.385,172.063 777.263,215.186 734.139,172.063 691.017,128.941 672.151,147.808 734.139,209.795
		782.652,258.308 782.696,258.308 801.543,277.155 734.165,344.533 691.042,301.411 647.92,258.289 647.875,258.289
		604.772,215.186 585.907,234.052 610.163,258.308 610.208,258.308 629.054,277.155 585.932,320.277 604.798,339.143
		647.92,296.021 672.176,320.277 629.054,363.399 647.92,382.265 691.042,339.143 734.165,382.265 777.287,339.143 844.665,406.521
		820.409,430.777 777.287,387.655 734.165,430.777 691.042,387.655 585.932,492.766 610.188,517.021 615.578,517.021
		591.322,492.766 	"/>
	<polygon fill="#999999" points="691.042,403.826 734.165,446.948 777.287,403.826 820.409,446.948 860.836,406.521
		777.287,322.972 734.165,366.094 691.042,322.972 647.92,366.094 645.225,363.399 688.346,320.277 647.92,279.85 604.798,322.972
		602.103,320.277 645.225,277.155 626.359,258.289 626.314,258.289 602.078,234.052 604.772,231.357 631.724,258.308
		631.769,258.308 691.042,317.582 734.165,360.704 817.714,277.155 798.848,258.289 798.804,258.289 734.139,193.625
		688.322,147.808 691.017,145.112 734.139,188.234 777.263,231.357 820.385,188.234 823.079,190.93 779.957,234.052
		804.214,258.308 804.258,258.308 823.104,277.155 779.981,320.277 820.409,360.704 863.531,317.582 866.227,320.277
		823.104,363.399 863.531,403.826 906.653,360.704 949.776,403.826 992.898,360.704 1079.143,446.948 1119.569,406.521
		992.898,279.85 949.776,322.972 906.653,279.85 885.093,258.289 885.048,258.289 860.812,234.052 903.934,190.93 860.812,147.808
		903.934,104.685 860.812,61.563 903.934,18.441 885.067,-0.425 879.678,-0.425 898.543,18.441 855.421,61.563 898.543,104.685
		855.421,147.808 898.543,190.93 855.421,234.052 879.678,258.308 879.722,258.308 906.653,285.24 949.776,328.362 992.898,285.24
		1114.18,406.521 1079.143,441.558 992.898,355.313 949.776,398.436 906.653,355.313 863.531,398.436 828.494,363.399
		871.616,320.277 863.531,312.191 820.409,355.313 785.372,320.277 828.494,277.155 809.629,258.289 809.584,258.289
		785.348,234.052 828.47,190.93 820.385,182.844 777.263,225.966 734.139,182.844 691.017,139.722 682.931,147.808 734.139,199.015
		793.433,258.308 793.478,258.308 812.323,277.155 734.165,355.313 691.042,312.191 637.14,258.289 637.095,258.289
		604.772,225.966 596.687,234.052 620.943,258.308 620.988,258.308 639.834,277.155 596.712,320.277 604.798,328.362 647.92,285.24
		682.958,320.277 639.834,363.399 647.92,371.484 691.042,328.362 734.165,371.484 777.287,328.362 855.445,406.521
		820.409,441.558 777.287,398.436 734.165,441.558 691.042,398.436 596.712,492.766 620.969,517.021 626.359,517.021
		602.103,492.766 	"/>
	<polygon fill="#999999" points="691.042,382.265 734.165,425.387 777.287,382.265 820.409,425.387 839.275,406.521
		777.287,344.533 734.165,387.655 691.042,344.533 647.92,387.655 623.664,363.399 666.786,320.277 647.92,301.411 604.798,344.533
		580.542,320.277 623.664,277.155 604.798,258.289 604.753,258.289 580.517,234.052 604.772,209.795 653.285,258.308
		653.331,258.308 691.042,296.021 734.165,339.143 796.152,277.155 777.287,258.289 777.243,258.289 734.139,215.186
		666.761,147.808 691.017,123.551 734.139,166.673 777.263,209.795 820.385,166.673 844.641,190.93 801.519,234.052
		825.774,258.308 825.818,258.308 844.665,277.155 801.543,320.277 820.409,339.143 863.531,296.021 887.787,320.277
		844.665,363.399 863.531,382.265 906.653,339.143 949.776,382.265 992.898,339.143 1079.143,425.387 1098.009,406.521
		992.898,301.411 949.776,344.533 906.653,301.411 863.531,258.289 863.487,258.289 839.25,234.052 882.373,190.93 839.25,147.808
		882.373,104.685 839.25,61.563 882.373,18.441 863.507,-0.425 858.116,-0.425 876.982,18.441 833.86,61.563 876.982,104.685
		833.86,147.808 876.982,190.93 833.86,234.052 858.116,258.308 858.16,258.308 906.653,306.801 949.776,349.923 992.898,306.801
		1092.618,406.521 1079.143,419.997 992.898,333.752 949.776,376.875 906.653,333.752 863.531,376.875 850.056,363.399
		893.178,320.277 863.531,290.63 820.409,333.752 806.934,320.277 850.056,277.155 831.189,258.289 831.146,258.289
		806.909,234.052 850.031,190.93 820.385,161.283 777.263,204.405 734.139,161.283 691.017,118.161 661.371,147.808
		734.139,220.576 771.872,258.308 771.916,258.308 790.763,277.155 734.165,333.752 691.042,290.63 658.7,258.289 658.656,258.289
		604.772,204.405 575.126,234.052 599.382,258.308 599.427,258.308 618.273,277.155 575.151,320.277 604.798,349.923
		647.92,306.801 661.395,320.277 618.273,363.399 647.92,393.045 691.042,349.923 734.165,393.045 777.287,349.923 833.885,406.521
		820.409,419.997 777.287,376.875 734.165,419.997 691.042,376.875 575.151,492.766 599.408,517.021 604.798,517.021
		580.542,492.766 	"/>
	<polygon fill="#999999" points="691.042,371.484 734.165,414.607 777.287,371.484 820.409,414.607 828.494,406.521
		777.287,355.313 734.165,398.436 691.042,355.313 647.92,398.436 612.883,363.399 656.006,320.277 647.92,312.191 604.798,355.313
		569.761,320.277 612.883,277.155 594.017,258.289 593.973,258.289 569.736,234.052 604.772,199.015 664.066,258.308
		664.11,258.308 691.042,285.24 734.165,328.362 785.372,277.155 766.506,258.289 766.462,258.289 734.139,225.966 655.98,147.808
		691.017,112.771 734.139,155.893 777.263,199.015 820.385,155.893 855.421,190.93 812.299,234.052 836.556,258.308 836.6,258.308
		855.445,277.155 812.323,320.277 820.409,328.362 863.531,285.24 898.568,320.277 855.445,363.399 863.531,371.484
		906.653,328.362 949.776,371.484 992.898,328.362 1079.143,414.607 1087.228,406.521 992.898,312.191 949.776,355.313
		906.653,312.191 852.751,258.289 852.707,258.289 828.47,234.052 871.592,190.93 828.47,147.808 871.592,104.685 828.47,61.563
		871.592,18.441 852.727,-0.425 847.336,-0.425 866.202,18.441 823.079,61.563 866.202,104.685 823.079,147.808 866.202,190.93
		823.079,234.052 847.336,258.308 847.38,258.308 906.653,317.582 949.776,360.704 992.898,317.582 1081.838,406.521
		1079.143,409.216 992.898,322.972 949.776,366.094 906.653,322.972 863.531,366.094 860.836,363.399 903.958,320.277
		863.531,279.85 820.409,322.972 817.714,320.277 860.836,277.155 841.97,258.289 841.926,258.289 817.689,234.052 860.812,190.93
		820.385,150.502 777.263,193.625 734.139,150.502 691.017,107.38 650.59,147.808 734.139,231.357 761.092,258.308 761.136,258.308
		779.981,277.155 734.165,322.972 691.042,279.85 669.481,258.289 669.436,258.289 604.772,193.625 564.346,234.052
		588.602,258.308 588.646,258.308 607.493,277.155 564.371,320.277 604.798,360.704 647.92,317.582 650.616,320.277
		607.493,363.399 647.92,403.826 691.042,360.704 734.165,403.826 777.287,360.704 823.104,406.521 820.409,409.216
		777.287,366.094 734.165,409.216 691.042,366.094 564.371,492.766 588.627,517.021 594.017,517.021 569.761,492.766 	"/>
	<polygon fill="#999999" points="866.227,449.644 906.653,490.071 933.605,517.021 938.995,517.021 906.653,484.68 871.616,449.644
		906.653,414.607 1009.069,517.021 1014.459,517.021 906.653,409.216 	"/>
	<polygon fill="#999999" points="817.714,449.644 777.287,409.216 734.165,452.339 691.042,409.216 650.616,449.644
		691.042,490.071 717.994,517.021 723.383,517.021 691.042,484.68 656.006,449.644 691.042,414.607 734.165,457.729
		777.287,414.607 812.323,449.644 769.201,492.766 793.458,517.021 798.848,517.021 774.592,492.766 	"/>
	<polygon fill="#999999" points="855.445,492.766 879.702,517.021 885.093,517.021 860.836,492.766 863.531,490.071
		890.482,517.021 895.873,517.021 863.531,484.68 	"/>
	<polygon fill="#999999" points="806.934,449.644 777.287,419.997 734.165,463.119 691.042,419.997 661.395,449.644 691.042,479.29
		728.774,517.021 734.165,517.021 691.042,473.9 666.786,449.644 691.042,425.387 734.165,468.509 777.287,425.387 801.543,449.644
		758.421,492.766 782.677,517.021 788.067,517.021 763.812,492.766 	"/>
	<polygon fill="#999999" points="785.372,449.644 777.287,441.558 734.165,484.68 691.042,441.558 682.958,449.644 691.042,457.729
		750.334,517.021 755.726,517.021 691.042,452.339 688.346,449.644 691.042,446.948 734.165,490.071 777.287,446.948
		779.981,449.644 736.859,492.766 761.116,517.021 766.506,517.021 742.25,492.766 	"/>
	<polygon fill="#999999" points="844.665,492.766 868.922,517.021 874.312,517.021 850.056,492.766 863.531,479.29 901.263,517.021
		906.653,517.021 863.531,473.9 	"/>
	<polygon fill="#999999" points="796.152,449.644 777.287,430.777 734.165,473.9 691.042,430.777 672.176,449.644 691.042,468.509
		739.554,517.021 744.945,517.021 691.042,463.119 677.567,449.644 691.042,436.168 734.165,479.29 777.287,436.168
		790.763,449.644 747.64,492.766 771.896,517.021 777.287,517.021 753.03,492.766 	"/>
	<polygon fill="#999999" points="863.531,452.339 823.104,492.766 847.36,517.021 852.751,517.021 828.494,492.766 863.531,457.729
		906.653,500.851 922.824,517.021 928.215,517.021 906.653,495.461 	"/>
	<polygon fill="#999999" points="877.007,449.644 906.653,479.29 944.386,517.021 949.776,517.021 906.653,473.9 882.397,449.644
		906.653,425.387 998.288,517.021 1003.679,517.021 906.653,419.997 	"/>
	<polygon fill="#999999" points="887.787,449.644 906.653,468.509 955.166,517.021 960.557,517.021 906.653,463.119
		893.178,449.644 906.653,436.168 987.508,517.021 992.898,517.021 906.653,430.777 	"/>
	<polygon fill="#999999" points="863.531,463.119 833.885,492.766 858.141,517.021 863.531,517.021 839.275,492.766
		863.531,468.509 906.653,511.632 912.044,517.021 917.435,517.021 906.653,506.241 	"/>
	<polygon fill="#999999" points="898.568,449.644 906.653,457.729 965.946,517.021 971.337,517.021 906.653,452.339
		903.958,449.644 906.653,446.948 976.728,517.021 982.117,517.021 906.653,441.558 	"/>
	<path fill="#999999" d="M1122.239,139.722l-51.208,51.208l67.379,67.378h0.045l18.847,18.847l-35.037,35.037l-53.902-53.903h-0.045
		l-32.322-32.322l-8.086,8.085l24.257,24.256h0.045l70.054,70.054l43.122-43.122l43.123,43.122l8.085-8.085l-51.208-51.208
		l-10.78-10.781h-0.045l-24.237-24.237l35.037-35.037l59.293,59.293h0.045l26.933,26.932l8.085-8.085l-18.866-18.866h-0.045
		l-75.444-75.444l-43.122,43.122l-35.037-35.037l43.122-43.122L1122.239,139.722z M1122.239,231.357l43.122-43.123l70.074,70.074
		h0.045l18.846,18.847l-2.694,2.695l-21.562-21.561h-0.045l-64.664-64.664l-40.427,40.427l24.256,24.256h0.045l16.151,16.151
		l45.817,45.817l-2.694,2.695l-43.123-43.123l-43.122,43.123l-64.684-64.684h-0.045l-24.236-24.237l2.695-2.695l26.951,26.951h0.045
		l59.273,59.273l40.427-40.427l-18.865-18.866h-0.045l-67.359-67.359l45.817-45.817l2.695,2.695l-43.122,43.122L1122.239,231.357z"
		/>
	<path fill="#999999" d="M1122.239,128.941l-61.988,61.988l67.379,67.378h0.045l18.846,18.847l-24.256,24.256l-43.122-43.123h-0.045
		l-43.103-43.103l-18.866,18.866l24.256,24.256h0.045l80.835,80.835l43.122-43.123l43.123,43.123l18.865-18.866l-61.988-61.988
		h-0.045l-24.236-24.237l24.256-24.256l48.513,48.513h0.045l37.713,37.712l18.865-18.866l-18.865-18.866h-0.045l-86.226-86.225
		l-43.122,43.123l-24.256-24.256l43.122-43.122L1122.239,128.941z M1122.239,220.576l43.122-43.122l80.854,80.854h0.045
		l18.847,18.847l-13.476,13.476l-32.342-32.342h-0.045l-53.884-53.883l-29.646,29.646l24.256,24.256h0.046l5.37,5.371l56.599,56.598
		l-13.476,13.476l-43.123-43.122l-43.122,43.122l-75.464-75.464h-0.045l-24.236-24.237l13.476-13.476l37.731,37.732h0.045
		l48.493,48.493l29.646-29.646l-18.866-18.866H1133l-67.358-67.359l56.598-56.598l13.476,13.476l-43.122,43.122L1122.239,220.576z"
		/>
	<polygon fill="#999999" points="1114.18,492.766 1138.436,517.021 1143.826,517.021 1119.569,492.766 1122.265,490.071
		1149.216,517.021 1154.606,517.021 1122.265,484.68 	"/>
	<polygon fill="#999999" points="1122.265,452.339 1081.838,492.766 1106.094,517.021 1111.484,517.021 1087.228,492.766
		1122.265,457.729 1165.387,500.851 1181.558,517.021 1186.948,517.021 1165.387,495.461 	"/>
	<polygon fill="#999999" points="1122.265,463.119 1092.618,492.766 1116.874,517.021 1122.265,517.021 1098.009,492.766
		1122.265,468.509 1165.387,511.632 1170.777,517.021 1176.168,517.021 1165.387,506.241 	"/>
	<polygon fill="#999999" points="1076.447,449.644 1036.021,409.216 992.898,452.339 990.203,449.644 1033.325,406.521
		992.898,366.094 949.776,409.216 906.653,366.094 779.981,492.766 804.238,517.021 809.629,517.021 785.372,492.766
		906.653,371.484 949.776,414.607 992.898,371.484 1027.935,406.521 984.812,449.644 992.898,457.729 1036.021,414.607
		1071.057,449.644 1027.935,492.766 1052.191,517.021 1057.581,517.021 1033.325,492.766 	"/>
	<polygon fill="#999999" points="1103.398,492.766 1127.655,517.021 1133.045,517.021 1108.789,492.766 1122.265,479.29
		1159.997,517.021 1165.387,517.021 1122.265,473.9 	"/>
	<polygon fill="#999999" points="1044.105,449.644 1036.021,441.558 992.898,484.68 957.861,449.644 1000.983,406.521
		992.898,398.436 949.776,441.558 906.653,398.436 812.323,492.766 836.58,517.021 841.97,517.021 817.714,492.766 906.653,403.826
		949.776,446.948 992.898,403.826 995.593,406.521 952.471,449.644 992.898,490.071 1036.021,446.948 1038.716,449.644
		995.593,492.766 1019.85,517.021 1025.24,517.021 1000.983,492.766 	"/>
	<polygon fill="#999999" points="1054.887,449.644 1036.021,430.777 992.898,473.9 968.642,449.644 1011.764,406.521
		992.898,387.655 949.776,430.777 906.653,387.655 801.543,492.766 825.799,517.021 831.189,517.021 806.934,492.766
		906.653,393.045 949.776,436.168 992.898,393.045 1006.374,406.521 963.252,449.644 992.898,479.29 1036.021,436.168
		1049.496,449.644 1006.374,492.766 1030.63,517.021 1036.021,517.021 1011.764,492.766 	"/>
	<polygon fill="#999999" points="1065.667,449.644 1036.021,419.997 992.898,463.119 979.423,449.644 1022.545,406.521
		992.898,376.875 949.776,419.997 906.653,376.875 790.763,492.766 815.019,517.021 820.409,517.021 796.152,492.766
		906.653,382.265 949.776,425.387 992.898,382.265 1017.154,406.521 974.032,449.644 992.898,468.509 1036.021,425.387
		1060.276,449.644 1017.154,492.766 1041.41,517.021 1046.801,517.021 1022.545,492.766 	"/>
	<polygon fill="#999999" points="1162.691,449.644 1165.387,446.948 1208.51,490.071 1248.937,449.644 1165.387,366.094
		1038.716,492.766 1062.972,517.021 1068.362,517.021 1044.105,492.766 1165.387,371.484 1243.546,449.644 1208.51,484.68
		1165.387,441.558 1157.302,449.644 1165.387,457.729 1224.68,517.021 1230.07,517.021 1165.387,452.339 	"/>
	<polygon fill="#999999" points="1151.911,449.644 1165.387,436.168 1208.51,479.29 1238.156,449.644 1165.387,376.875
		1049.496,492.766 1073.752,517.021 1079.143,517.021 1054.887,492.766 1165.387,382.265 1232.766,449.644 1208.51,473.9
		1165.387,430.777 1146.521,449.644 1165.387,468.509 1213.899,517.021 1219.29,517.021 1165.387,463.119 	"/>
	<polygon fill="#999999" points="1141.131,449.644 1165.387,425.387 1208.51,468.509 1227.375,449.644 1165.387,387.655
		1060.276,492.766 1084.533,517.021 1089.923,517.021 1065.667,492.766 1165.387,393.045 1221.985,449.644 1208.51,463.119
		1165.387,419.997 1135.74,449.644 1165.387,479.29 1203.119,517.021 1208.51,517.021 1165.387,473.9 	"/>
	<polygon fill="#999999" points="1130.351,449.644 1165.387,414.607 1208.51,457.729 1216.595,449.644 1165.387,398.436
		1071.057,492.766 1095.313,517.021 1100.704,517.021 1076.447,492.766 1165.387,403.826 1211.204,449.644 1208.51,452.339
		1165.387,409.216 1124.96,449.644 1165.387,490.071 1192.339,517.021 1197.729,517.021 1165.387,484.68 	"/>
	<path fill="#999999" d="M1122.239,118.161l-72.769,72.769l67.378,67.378h0.045l18.847,18.847l-13.476,13.476l-32.342-32.342h-0.045
		l-53.883-53.883l-29.646,29.646l24.256,24.256h0.045l91.615,91.615l43.122-43.122l43.123,43.122l29.646-29.646l-61.988-61.988
		h-0.045l-10.762-10.761l-13.476-13.476l13.476-13.476l37.732,37.732h0.045l48.493,48.493l29.646-29.646l-18.866-18.866h-0.045
		l-97.006-97.005l-43.122,43.122l-13.476-13.476l43.122-43.122L1122.239,118.161z M1122.239,209.795l43.122-43.122l91.635,91.635
		h0.045l18.847,18.847l-24.256,24.256l-43.122-43.123h-0.045l-43.104-43.103l-18.866,18.866l18.866,18.866l5.391,5.39h0.045
		l61.969,61.969l-24.256,24.256l-43.123-43.122l-43.122,43.122l-86.244-86.245h-0.045l-24.237-24.237l24.257-24.256l48.512,48.513
		h0.046l37.712,37.712l18.866-18.866l-18.866-18.866h-0.045l-67.359-67.359l67.379-67.378l24.256,24.256l-43.122,43.122
		L1122.239,209.795z"/>
	<path fill="#999999" d="M1122.239,107.38l-83.55,83.549l67.379,67.378h0.045l18.847,18.847l-2.695,2.695l-21.561-21.561h-0.046
		l-64.663-64.664l-40.428,40.427l24.257,24.256h0.045l102.396,102.396l43.122-43.123l43.123,43.123l40.427-40.427l-61.988-61.988
		h-0.045l-21.542-21.542l-2.695-2.695l2.695-2.695l26.952,26.951h0.045l59.273,59.273l40.427-40.427l-18.866-18.866h-0.045
		l-107.786-107.786l-43.122,43.123l-2.695-2.695l43.122-43.122L1122.239,107.38z M1122.239,199.015l43.122-43.122l102.416,102.415
		h0.045l18.846,18.847l-35.036,35.037l-53.903-53.903h-0.045l-32.322-32.322l-8.085,8.085l8.085,8.085l16.171,16.171h0.045
		l61.969,61.969l-35.036,35.037l-43.123-43.122l-43.122,43.122l-97.024-97.025h-0.046l-24.236-24.237l35.037-35.037l59.293,59.293
		h0.045l26.932,26.932l8.086-8.085l-18.866-18.866h-0.045l-67.359-67.359l78.159-78.159l35.037,35.037l-43.123,43.122
		L1122.239,199.015z"/>
	<polygon fill="#999999" points="1292.059,449.644 1248.937,406.521 1292.059,363.399 1251.632,322.972 1208.51,366.094
		1165.387,322.972 1122.265,366.094 1014.459,258.289 1014.414,258.289 949.751,193.626 949.751,193.625 949.75,193.625
		949.75,193.625 949.75,193.626 909.324,234.052 933.58,258.308 933.625,258.308 952.471,277.155 949.776,279.85 928.215,258.289
		928.171,258.289 903.934,234.052 947.056,190.93 903.934,147.808 906.629,145.112 949.75,188.233 949.75,188.234 992.873,231.357
		1165.361,58.868 1208.484,101.99 1248.911,61.563 1186.923,-0.425 1181.532,-0.425 1243.521,61.563 1208.484,96.6 1165.361,53.478
		992.873,225.966 949.751,182.845 949.751,182.844 906.629,139.722 898.543,147.808 941.666,190.93 898.543,234.052 922.8,258.308
		922.844,258.308 949.776,285.24 957.861,277.155 938.995,258.289 938.951,258.289 914.714,234.052 949.75,199.016
		1009.043,258.308 1009.089,258.308 1122.265,371.484 1165.387,328.362 1208.51,371.484 1251.632,328.362 1286.668,363.399
		1243.546,406.521 1286.668,449.644 1243.546,492.766 1267.803,517.021 1273.192,517.021 1248.937,492.766 	"/>
	<polygon fill="#999999" points="1313.62,449.644 1270.497,406.521 1313.62,363.399 1270.497,320.277 1313.62,277.155
		1294.754,258.289 1294.709,258.289 1270.472,234.052 1313.595,190.93 1294.729,172.063 1251.606,215.186 1227.35,190.93
		1270.472,147.808 1251.606,128.941 1208.484,172.063 1165.361,128.941 1141.105,104.685 1165.361,80.429 1208.484,123.551
		1313.595,18.441 1294.729,-0.425 1289.338,-0.425 1308.204,18.441 1208.484,118.161 1165.361,75.039 1135.715,104.685
		1165.361,134.332 1208.484,177.454 1251.606,134.332 1265.082,147.808 1221.96,190.93 1251.606,220.576 1294.729,177.454
		1308.204,190.93 1265.082,234.052 1289.338,258.308 1289.383,258.308 1308.229,277.155 1265.107,320.277 1308.229,363.399
		1265.107,406.521 1308.229,449.644 1265.107,492.766 1289.363,517.021 1294.754,517.021 1270.497,492.766 	"/>
	<polygon fill="#999999" points="1324.4,449.644 1281.278,406.521 1324.4,363.399 1281.278,320.277 1324.4,277.155
		1305.534,258.289 1305.489,258.289 1281.253,234.052 1324.375,190.93 1294.729,161.283 1251.606,204.405 1238.131,190.93
		1281.253,147.808 1251.606,118.161 1208.484,161.283 1165.361,118.161 1151.886,104.685 1165.361,91.209 1208.484,134.332
		1324.375,18.441 1305.509,-0.425 1300.118,-0.425 1318.984,18.441 1208.484,128.941 1165.361,85.819 1146.495,104.685
		1165.361,123.551 1208.484,166.673 1251.606,123.551 1275.862,147.808 1232.74,190.93 1251.606,209.795 1294.729,166.673
		1318.984,190.93 1275.862,234.052 1300.118,258.308 1300.163,258.308 1319.01,277.155 1275.888,320.277 1319.01,363.399
		1275.888,406.521 1319.01,449.644 1275.888,492.766 1300.144,517.021 1305.534,517.021 1281.278,492.766 	"/>
	<polygon fill="#999999" points="1329.79,492.766 1354.047,517.021 1359.438,517.021 1335.181,492.766 1337.876,490.071
		1364.827,517.021 1370.218,517.021 1337.876,484.68 	"/>
	<polygon fill="#999999" points="1302.839,449.644 1259.717,406.521 1302.839,363.399 1259.717,320.277 1302.839,277.155
		1283.974,258.289 1283.929,258.289 1259.691,234.052 1302.813,190.93 1294.729,182.844 1251.606,225.966 1216.569,190.93
		1259.691,147.808 1251.606,139.722 1208.484,182.844 1165.361,139.722 1130.324,104.685 1165.361,69.648 1208.484,112.771
		1302.813,18.441 1283.948,-0.425 1278.558,-0.425 1297.424,18.441 1208.484,107.38 1165.361,64.258 1124.935,104.685
		1165.361,145.112 1208.484,188.234 1251.606,145.112 1254.301,147.808 1211.179,190.93 1251.606,231.357 1294.729,188.234
		1297.424,190.93 1254.301,234.052 1278.558,258.308 1278.603,258.308 1297.449,277.155 1254.326,320.277 1297.449,363.399
		1254.326,406.521 1297.449,449.644 1254.326,492.766 1278.583,517.021 1283.974,517.021 1259.717,492.766 	"/>
	<polygon fill="#999999" points="1335.181,449.644 1292.059,406.521 1335.181,363.399 1292.059,320.277 1335.181,277.155
		1316.314,258.289 1316.27,258.289 1292.033,234.052 1335.155,190.93 1294.729,150.502 1251.606,193.625 1248.911,190.93
		1292.033,147.808 1251.606,107.38 1208.484,150.502 1165.361,107.38 1162.666,104.685 1165.361,101.99 1208.484,145.112
		1335.155,18.441 1316.289,-0.425 1310.899,-0.425 1329.765,18.441 1208.484,139.722 1165.361,96.6 1157.276,104.685
		1165.361,112.771 1208.484,155.893 1251.606,112.771 1286.643,147.808 1243.521,190.93 1251.606,199.015 1294.729,155.893
		1329.765,190.93 1286.643,234.052 1310.899,258.308 1310.944,258.308 1329.79,277.155 1286.668,320.277 1329.79,363.399
		1286.668,406.521 1329.79,449.644 1286.668,492.766 1310.925,517.021 1316.314,517.021 1292.059,492.766 	"/>
	<polygon fill="#999999" points="1281.278,449.644 1238.156,406.521 1281.278,363.399 1251.632,333.752 1208.51,376.875
		1165.387,333.752 1122.265,376.875 1003.679,258.289 1003.634,258.289 949.751,204.406 949.751,204.405 949.75,204.406
		949.75,204.405 949.75,204.406 920.104,234.052 944.36,258.308 944.405,258.308 963.252,277.155 949.776,290.63 917.435,258.289
		917.39,258.289 893.153,234.052 936.275,190.93 893.153,147.808 906.629,134.332 949.75,177.453 949.75,177.454 992.873,220.576
		1165.361,48.087 1208.484,91.209 1238.131,61.563 1176.143,-0.425 1170.752,-0.425 1232.74,61.563 1208.484,85.819
		1165.361,42.697 992.873,215.186 949.751,172.064 949.751,172.063 906.629,128.941 887.763,147.808 930.885,190.93
		887.763,234.052 912.02,258.308 912.063,258.308 949.776,296.021 968.642,277.155 949.776,258.289 949.731,258.289
		925.495,234.052 949.75,209.796 998.263,258.308 998.308,258.308 1122.265,382.265 1165.387,339.143 1208.51,382.265
		1251.632,339.143 1275.888,363.399 1232.766,406.521 1275.888,449.644 1232.766,492.766 1257.021,517.021 1262.412,517.021
		1238.156,492.766 	"/>
	<polygon fill="#999999" points="1259.717,449.644 1216.595,406.521 1259.717,363.399 1251.632,355.313 1208.51,398.436
		1165.387,355.313 1122.265,398.436 982.117,258.289 982.072,258.289 949.751,225.967 949.751,225.966 949.75,225.967
		949.75,225.966 949.75,225.967 941.666,234.052 949.75,242.136 949.75,242.137 965.921,258.308 965.966,258.308 984.812,277.155
		949.776,312.191 906.653,269.069 895.873,258.289 895.829,258.289 871.592,234.052 914.714,190.93 871.592,147.808
		906.629,112.771 949.75,155.892 949.75,155.893 992.873,199.015 1165.361,26.526 1208.484,69.648 1216.569,61.563 1165.361,10.355
		1154.581,-0.425 1149.19,-0.425 1165.361,15.746 1211.179,61.563 1208.484,64.258 1165.361,21.136 992.873,193.625
		949.751,150.503 949.751,150.502 906.629,107.38 866.202,147.808 909.324,190.93 866.202,234.052 890.458,258.308 890.502,258.308
		906.653,274.459 949.776,317.582 990.203,277.155 971.337,258.289 971.292,258.289 949.751,236.748 949.751,236.747
		947.056,234.052 949.75,231.357 976.702,258.308 976.747,258.308 1122.265,403.826 1165.387,360.704 1208.51,403.826
		1251.632,360.704 1254.326,363.399 1211.204,406.521 1254.326,449.644 1211.204,492.766 1235.461,517.021 1240.851,517.021
		1216.595,492.766 	"/>
	<polygon fill="#999999" points="1270.497,449.644 1227.375,406.521 1270.497,363.399 1251.632,344.533 1208.51,387.655
		1165.387,344.533 1122.265,387.655 992.898,258.289 992.854,258.289 949.751,215.187 949.751,215.186 949.75,215.187
		949.75,215.186 949.75,215.187 930.885,234.052 949.75,252.917 949.75,252.918 955.141,258.308 955.186,258.308 974.032,277.155
		949.776,301.411 906.653,258.289 906.609,258.289 882.373,234.052 925.495,190.93 882.373,147.808 906.629,123.551 949.75,166.672
		949.75,166.673 992.873,209.795 1165.361,37.307 1208.484,80.429 1227.35,61.563 1165.361,-0.425 1159.971,-0.425 1165.361,4.965
		1221.96,61.563 1208.484,75.039 1165.361,31.917 992.873,204.405 949.751,161.284 949.751,161.283 906.629,118.161
		876.982,147.808 920.104,190.93 876.982,234.052 901.238,258.308 901.282,258.308 906.653,263.679 949.776,306.801
		979.423,277.155 960.557,258.289 960.512,258.289 949.751,247.528 949.751,247.527 936.275,234.052 949.75,220.577
		987.482,258.308 987.527,258.308 1122.265,393.045 1165.387,349.923 1208.51,393.045 1251.632,349.923 1265.107,363.399
		1221.985,406.521 1265.107,449.644 1221.985,492.766 1246.241,517.021 1251.632,517.021 1227.375,492.766 	"/>
	<polygon fill="#999999" points="1337.876,463.119 1308.229,492.766 1332.485,517.021 1337.876,517.021 1313.62,492.766
		1337.876,468.509 1380.998,511.632 1386.389,517.021 1391.779,517.021 1380.998,506.241 	"/>
	<polygon fill="#999999" points="1319.01,492.766 1343.267,517.021 1348.656,517.021 1324.4,492.766 1337.876,479.29
		1375.607,517.021 1380.998,517.021 1337.876,473.9 	"/>
	<polygon fill="#999999" points="1337.876,452.339 1297.449,492.766 1321.705,517.021 1327.096,517.021 1302.839,492.766
		1337.876,457.729 1380.998,500.851 1397.169,517.021 1402.56,517.021 1380.998,495.461 	"/>
	<path fill="#999999" d="M1364.847,258.308l16.151,16.151l43.123,43.122l40.427-40.427l-18.866-18.866h-0.045l-21.542-21.542
		l-43.122-43.122l-40.427,40.427l24.256,24.256H1364.847z M1380.973,199.015l43.122,43.122l16.171,16.171h0.045l18.847,18.847
		l-35.036,35.037l-43.123-43.122l-10.78-10.781h-0.045l-24.237-24.237L1380.973,199.015z"/>
	<polygon fill="#999999" points="1550.792,449.644 1507.67,406.521 1550.792,363.399 1507.67,320.277 1550.792,277.155
		1531.926,258.289 1531.881,258.289 1507.645,234.052 1550.767,190.93 1510.34,150.502 1467.218,193.625 1424.095,150.502
		1383.668,190.93 1424.095,231.357 1451.047,258.308 1451.092,258.308 1469.938,277.155 1424.121,322.972 1380.998,279.85
		1340.571,320.277 1380.998,360.704 1424.121,403.826 1467.243,360.704 1469.938,363.399 1424.121,409.216 1380.998,366.094
		1337.876,409.216 1335.181,406.521 1378.303,363.399 1335.181,320.277 1378.303,277.155 1359.438,258.289 1359.393,258.289
		1335.155,234.052 1424.095,145.112 1467.218,188.234 1510.34,145.112 1553.462,188.234 1593.889,147.808 1510.34,64.258
		1467.218,107.38 1424.095,64.258 1380.973,107.38 1378.277,104.685 1421.399,61.563 1380.973,21.136 1337.851,64.258
		1335.155,61.563 1378.277,18.441 1359.412,-0.425 1354.021,-0.425 1372.888,18.441 1329.765,61.563 1337.851,69.648
		1380.973,26.526 1416.01,61.563 1372.888,104.685 1380.973,112.771 1424.095,69.648 1467.218,112.771 1510.34,69.648
		1588.498,147.808 1553.462,182.844 1510.34,139.722 1467.218,182.844 1424.095,139.722 1329.765,234.052 1354.021,258.308
		1354.066,258.308 1372.913,277.155 1329.79,320.277 1372.913,363.399 1329.79,406.521 1337.876,414.607 1380.998,371.484
		1424.121,414.607 1475.328,363.399 1467.243,355.313 1424.121,398.436 1380.998,355.313 1345.961,320.277 1380.998,285.24
		1424.121,328.362 1475.328,277.155 1456.462,258.289 1456.417,258.289 1424.095,225.966 1389.059,190.93 1424.095,155.893
		1467.218,199.015 1510.34,155.893 1545.376,190.93 1502.254,234.052 1526.511,258.308 1526.556,258.308 1545.401,277.155
		1502.279,320.277 1545.401,363.399 1502.279,406.521 1545.401,449.644 1502.279,492.766 1526.536,517.021 1531.926,517.021
		1507.67,492.766 	"/>
	<polygon fill="#999999" points="1518.45,449.644 1475.328,406.521 1518.45,363.399 1475.328,320.277 1518.45,277.155
		1499.585,258.289 1499.539,258.289 1475.303,234.052 1518.425,190.93 1510.34,182.844 1467.218,225.966 1424.095,182.844
		1416.01,190.93 1424.095,199.015 1483.388,258.308 1483.434,258.308 1502.279,277.155 1424.121,355.313 1380.998,312.191
		1372.913,320.277 1380.998,328.362 1424.121,371.484 1467.243,328.362 1502.279,363.399 1424.121,441.558 1380.998,398.436
		1337.876,441.558 1302.839,406.521 1345.961,363.399 1302.839,320.277 1345.961,277.155 1327.096,258.289 1327.051,258.289
		1302.813,234.052 1424.095,112.771 1467.218,155.893 1510.34,112.771 1553.462,155.893 1561.547,147.808 1510.34,96.6
		1467.218,139.722 1424.095,96.6 1380.973,139.722 1345.936,104.685 1389.059,61.563 1380.973,53.478 1337.851,96.6
		1302.813,61.563 1345.936,18.441 1327.07,-0.425 1321.68,-0.425 1340.546,18.441 1297.424,61.563 1337.851,101.99 1380.973,58.868
		1383.668,61.563 1340.546,104.685 1380.973,145.112 1424.095,101.99 1467.218,145.112 1510.34,101.99 1556.157,147.808
		1553.462,150.502 1510.34,107.38 1467.218,150.502 1424.095,107.38 1297.424,234.052 1321.68,258.308 1321.725,258.308
		1340.571,277.155 1297.449,320.277 1340.571,363.399 1297.449,406.521 1337.876,446.948 1380.998,403.826 1424.121,446.948
		1507.67,363.399 1467.243,322.972 1424.121,366.094 1380.998,322.972 1378.303,320.277 1380.998,317.582 1424.121,360.704
		1507.67,277.155 1488.804,258.289 1488.759,258.289 1424.095,193.625 1421.399,190.93 1424.095,188.234 1467.218,231.357
		1510.34,188.234 1513.034,190.93 1469.912,234.052 1494.169,258.308 1494.214,258.308 1513.061,277.155 1469.938,320.277
		1513.061,363.399 1469.938,406.521 1513.061,449.644 1469.938,492.766 1494.194,517.021 1499.585,517.021 1475.328,492.766 	"/>
	<polygon fill="#999999" points="1540.012,449.644 1496.89,406.521 1540.012,363.399 1496.89,320.277 1540.012,277.155
		1521.146,258.289 1521.101,258.289 1496.864,234.052 1539.986,190.93 1510.34,161.283 1467.218,204.405 1424.095,161.283
		1394.448,190.93 1424.095,220.576 1461.827,258.308 1461.872,258.308 1480.719,277.155 1424.121,333.752 1380.998,290.63
		1351.352,320.277 1380.998,349.923 1424.121,393.045 1467.243,349.923 1480.719,363.399 1424.121,419.997 1380.998,376.875
		1337.876,419.997 1324.4,406.521 1367.522,363.399 1324.4,320.277 1367.522,277.155 1348.656,258.289 1348.611,258.289
		1324.375,234.052 1424.095,134.332 1467.218,177.454 1510.34,134.332 1553.462,177.454 1583.108,147.808 1510.34,75.039
		1467.218,118.161 1424.095,75.039 1380.973,118.161 1367.497,104.685 1410.619,61.563 1380.973,31.917 1337.851,75.039
		1324.375,61.563 1367.497,18.441 1348.631,-0.425 1343.241,-0.425 1362.106,18.441 1318.984,61.563 1337.851,80.429
		1380.973,37.307 1405.229,61.563 1362.106,104.685 1380.973,123.551 1424.095,80.429 1467.218,123.551 1510.34,80.429
		1577.718,147.808 1553.462,172.063 1510.34,128.941 1467.218,172.063 1424.095,128.941 1318.984,234.052 1343.241,258.308
		1343.286,258.308 1362.132,277.155 1319.01,320.277 1362.132,363.399 1319.01,406.521 1337.876,425.387 1380.998,382.265
		1424.121,425.387 1486.108,363.399 1467.243,344.533 1424.121,387.655 1380.998,344.533 1356.742,320.277 1380.998,296.021
		1424.121,339.143 1486.108,277.155 1467.243,258.289 1467.198,258.289 1424.095,215.186 1399.839,190.93 1424.095,166.673
		1467.218,209.795 1510.34,166.673 1534.596,190.93 1491.474,234.052 1515.729,258.308 1515.774,258.308 1534.621,277.155
		1491.499,320.277 1534.621,363.399 1491.499,406.521 1534.621,449.644 1491.499,492.766 1515.755,517.021 1521.146,517.021
		1496.89,492.766 	"/>
	<polygon fill="#999999" points="1507.67,449.644 1467.243,409.216 1424.121,452.339 1380.998,409.216 1340.571,449.644
		1380.998,490.071 1407.95,517.021 1413.34,517.021 1380.998,484.68 1345.961,449.644 1380.998,414.607 1424.121,457.729
		1467.243,414.607 1502.279,449.644 1459.157,492.766 1483.414,517.021 1488.804,517.021 1464.548,492.766 	"/>
	<polygon fill="#999999" points="1529.231,449.644 1486.108,406.521 1529.231,363.399 1486.108,320.277 1529.231,277.155
		1510.365,258.289 1510.32,258.289 1486.083,234.052 1529.205,190.93 1510.34,172.063 1467.218,215.186 1424.095,172.063
		1405.229,190.93 1424.095,209.795 1472.607,258.308 1472.652,258.308 1491.499,277.155 1424.121,344.533 1380.998,301.411
		1362.132,320.277 1380.998,339.143 1424.121,382.265 1467.243,339.143 1491.499,363.399 1424.121,430.777 1380.998,387.655
		1337.876,430.777 1313.62,406.521 1356.742,363.399 1313.62,320.277 1356.742,277.155 1337.876,258.289 1337.831,258.289
		1313.595,234.052 1424.095,123.551 1467.218,166.673 1510.34,123.551 1553.462,166.673 1572.328,147.808 1510.34,85.819
		1467.218,128.941 1424.095,85.819 1380.973,128.941 1356.717,104.685 1399.839,61.563 1380.973,42.697 1337.851,85.819
		1313.595,61.563 1356.717,18.441 1337.851,-0.425 1332.46,-0.425 1351.326,18.441 1308.204,61.563 1337.851,91.209
		1380.973,48.087 1394.448,61.563 1351.326,104.685 1380.973,134.332 1424.095,91.209 1467.218,134.332 1510.34,91.209
		1566.938,147.808 1553.462,161.283 1510.34,118.161 1467.218,161.283 1424.095,118.161 1308.204,234.052 1332.46,258.308
		1332.505,258.308 1351.352,277.155 1308.229,320.277 1351.352,363.399 1308.229,406.521 1337.876,436.168 1380.998,393.045
		1424.121,436.168 1496.89,363.399 1467.243,333.752 1424.121,376.875 1380.998,333.752 1367.522,320.277 1380.998,306.801
		1424.121,349.923 1496.89,277.155 1478.023,258.289 1477.979,258.289 1424.095,204.405 1410.619,190.93 1424.095,177.454
		1467.218,220.576 1510.34,177.454 1523.815,190.93 1480.693,234.052 1504.949,258.308 1504.994,258.308 1523.841,277.155
		1480.719,320.277 1523.841,363.399 1480.719,406.521 1523.841,449.644 1480.719,492.766 1504.975,517.021 1510.365,517.021
		1486.108,492.766 	"/>
	<polygon fill="#999999" points="1475.328,449.644 1467.243,441.558 1424.121,484.68 1380.998,441.558 1372.913,449.644
		1380.998,457.729 1440.291,517.021 1445.682,517.021 1380.998,452.339 1378.303,449.644 1380.998,446.948 1424.121,490.071
		1467.243,446.948 1469.938,449.644 1426.815,492.766 1451.072,517.021 1456.462,517.021 1432.206,492.766 	"/>
	<polygon fill="#999999" points="1496.89,449.644 1467.243,419.997 1424.121,463.119 1380.998,419.997 1351.352,449.644
		1380.998,479.29 1418.73,517.021 1424.121,517.021 1380.998,473.9 1356.742,449.644 1380.998,425.387 1424.121,468.509
		1467.243,425.387 1491.499,449.644 1448.377,492.766 1472.633,517.021 1478.023,517.021 1453.768,492.766 	"/>
	<polygon fill="#999999" points="1486.108,449.644 1467.243,430.777 1424.121,473.9 1380.998,430.777 1362.132,449.644
		1380.998,468.509 1429.511,517.021 1434.901,517.021 1380.998,463.119 1367.522,449.644 1380.998,436.168 1424.121,479.29
		1467.243,436.168 1480.719,449.644 1437.597,492.766 1461.853,517.021 1467.243,517.021 1442.986,492.766 	"/>
	<path fill="#999999" d="M1397.188,258.308l26.933,26.932l8.085-8.085l-18.866-18.866h-0.045l-32.322-32.322l-8.085,8.085
		l24.256,24.256H1397.188z M1380.973,231.357l26.951,26.951h0.046l18.846,18.847l-2.694,2.695l-21.562-21.561h-0.045l-24.237-24.237
		L1380.973,231.357z"/>
	<path fill="#999999" d="M1375.627,258.308l5.371,5.371l43.123,43.122l29.646-29.646l-18.866-18.866h-0.045l-10.762-10.761
		l-43.122-43.122l-29.646,29.646l24.256,24.256H1375.627z M1380.973,209.795l43.122,43.123l5.391,5.39h0.045l18.847,18.847
		l-24.256,24.256l-43.123-43.123h-0.045l-24.236-24.237L1380.973,209.795z"/>
</g>
</svg>
