<?xml version="1.0" encoding="utf-8"?>
<!-- Generator: Adobe Illustrator 17.0.0, SVG Export Plug-In . SVG Version: 6.00 Build 0)  -->
<!DOCTYPE svg PUBLIC "-//W3C//DTD SVG 1.1//EN" "http://www.w3.org/Graphics/SVG/1.1/DTD/svg11.dtd">
<svg version="1.1" id="Layer_1" xmlns="http://www.w3.org/2000/svg" xmlns:xlink="http://www.w3.org/1999/xlink" x="0px" y="0px"
	 width="1022.798px" height="367.393px" viewBox="0 0 1022.798 367.393" enable-background="new 0 0 1022.798 367.393"
	 xml:space="preserve">
<g>
	<path fill="#22d3ad" d="M0,156.378V2.904h85.24v34.428H37.539v23.851h46.25V95.61h-46.25v26.34H85.24v34.428H0z"/>
	<path fill="#22d3ad" d="M175.458,156.378l-23.021-35.672L129,156.378H87.521l43.761-61.597L92.499,41.272h41.272l18.666,30.28
		l18.458-30.28h40.857l-38.783,53.508l44.59,61.597H175.458z"/>
	<path fill="#22d3ad" d="M222.119,29.036V2.904h34.428v26.132H222.119z M222.119,156.378V41.272h34.428v115.105H222.119z"/>
	<path fill="#22d3ad" d="M308.809,67.404v88.974h-34.428V67.404h-12.858V41.272h12.858v-6.015C274.381,7.259,294.291,0,318.35,0
		h4.978v25.925c-12.444,0-14.518,2.489-14.518,15.348h14.518v26.132H308.809z"/>
	<path fill="#22d3ad" d="M0,326.377V172.903h85.24v34.429H37.539v23.851h46.25v34.428h-46.25v26.34H85.24v34.427H0z"/>
	<path fill="#22d3ad" d="M175.458,326.377l-23.021-35.671L129,326.377H87.521l43.761-61.596l-38.783-53.509h41.272l18.666,30.28
		l18.458-30.28h40.857l-38.783,53.509l44.59,61.596H175.458z"/>
	<path fill="#22d3ad" d="M273.555,329.903c-35.258,0-62.012-25.924-62.012-61.181c0-35.258,26.754-61.183,62.012-61.183
		c35.257,0,62.012,25.925,62.012,61.183C335.566,303.979,308.812,329.903,273.555,329.903z M273.555,239.686
		c-15.97,0-27.584,13.481-27.584,29.036s11.614,29.035,27.584,29.035s27.584-13.48,27.584-29.035S289.524,239.686,273.555,239.686z"
		/>
	<path fill="#22d3ad" d="M433.868,326.377v-12.443h-0.415c-7.259,12.236-20.947,16.177-34.428,16.177
		c-35.258,0-57.656-27.583-57.656-61.597c0-33.391,22.398-61.182,57.034-61.182c13.273,0,24.473,4.147,33.806,13.688v-48.117h34.428
		v153.474H433.868z M405.04,239.479c-16.592,0-29.243,12.029-29.243,28.828s11.614,29.658,28.828,29.658s29.45-12.651,29.45-29.658
		C434.075,251.715,421.632,239.479,405.04,239.479z"/>
	<path fill="#22d3ad" d="M557.268,326.377v-12.236h-0.414c-6.015,12.443-17.007,15.97-29.865,15.97
		c-12.651,0-25.511-4.355-33.806-14.519c-9.333-11.613-10.37-21.154-10.37-35.464v-68.855h34.428v63.671
		c0,13.066,2.903,23.021,18.458,23.021c14.311,0,19.703-10.163,19.703-23.437v-63.256h34.428v115.105H557.268z"/>
	<path fill="#22d3ad" d="M645.823,330.318c-24.059,0-44.176-12.858-46.872-38.161h34.221c1.037,7.052,6.222,10.577,13.065,10.577
		c5.186,0,12.029-2.903,12.029-8.918c0-8.296-9.333-10.784-15.555-13.273c-4.978-1.659-9.955-3.318-14.933-5.185
		c-13.688-4.978-27.376-13.896-27.376-30.073c0-24.058,22.398-37.953,44.59-37.953c23.021,0,41.895,11.821,44.176,36.294h-33.806
		c-0.207-6.429-4.771-8.71-10.784-8.71c-4.563,0-9.748,2.488-9.748,7.673c0,18.044,57.863,7.882,57.863,48.531
		C692.694,317.044,669.259,330.318,645.823,330.318z"/>
</g>
<g>
	<path fill="#E6E7E8" d="M1022.798,211.015V364.49h-85.24v-34.429h47.701V306.21H939.01v-34.428h46.249v-26.34h-47.701v-34.428
		H1022.798z"/>
	<path fill="#E6E7E8" d="M847.34,211.015l23.021,35.672l23.436-35.672h41.48l-43.762,61.597l38.783,53.508h-41.271l-18.666-30.28
		l-18.458,30.28h-40.857l38.783-53.508l-44.591-61.597H847.34z"/>
	<path fill="#E6E7E8" d="M800.68,211.015v115.105h-34.429V211.015H800.68z M800.68,338.357v26.133h-34.429v-26.133H800.68z"/>
	<path fill="#E6E7E8" d="M713.988,299.989v-88.974h34.429v88.974h12.858v26.132h-12.858v6.015c0,27.999-19.91,35.258-43.969,35.258
		h-4.978v-25.925c12.444,0,14.518-2.488,14.518-15.348h-14.518v-26.132H713.988z"/>
	<path fill="#E6E7E8" d="M1022.798,41.015V194.49h-85.24v-34.429h47.701V136.21H939.01v-34.428h46.249v-26.34h-47.701V41.015
		H1022.798z"/>
	<path fill="#E6E7E8" d="M847.34,41.015l23.021,35.672l23.436-35.672h41.48l-43.762,61.597l38.783,53.509h-41.271l-18.666-30.28
		l-18.458,30.28h-40.857l38.783-53.509l-44.591-61.597H847.34z"/>
	<path fill="#E6E7E8" d="M749.243,37.49c35.258,0,62.012,25.924,62.012,61.182s-26.754,61.183-62.012,61.183
		c-35.257,0-62.012-25.925-62.012-61.183S713.986,37.49,749.243,37.49z M749.243,127.708c15.97,0,27.584-13.481,27.584-29.036
		s-11.614-29.035-27.584-29.035s-27.584,13.48-27.584,29.035S733.273,127.708,749.243,127.708z"/>
	<path fill="#E6E7E8" d="M588.93,41.015v12.443h0.415c7.259-12.236,20.947-16.177,34.428-16.177
		c35.258,0,57.656,27.584,57.656,61.598c0,33.391-22.398,61.182-57.034,61.182c-13.273,0-24.473-4.147-33.806-13.688v48.117h-34.428
		V41.015H588.93z M617.758,127.915c16.592,0,29.243-12.029,29.243-28.828s-11.614-29.658-28.828-29.658s-29.45,12.651-29.45,29.658
		C588.723,115.678,601.166,127.915,617.758,127.915z"/>
	<path fill="#E6E7E8" d="M465.53,41.015v12.236h0.414c6.015-12.443,17.007-15.97,29.865-15.97c12.651,0,25.511,4.355,33.806,14.519
		c9.333,11.613,10.37,21.154,10.37,35.465v68.855h-34.428V92.45c0-13.066-2.903-23.021-18.458-23.021
		c-14.311,0-19.703,10.163-19.703,23.437v63.256h-34.428V41.015H465.53z"/>
	<path fill="#E6E7E8" d="M376.975,37.075c24.059,0,44.176,12.858,46.872,38.161h-34.221c-1.037-7.052-6.222-10.577-13.065-10.577
		c-5.186,0-12.029,2.903-12.029,8.918c0,8.296,9.333,10.784,15.555,13.273c4.978,1.659,9.955,3.318,14.933,5.185
		c13.688,4.978,27.376,13.896,27.376,30.073c0,24.058-22.398,37.953-44.59,37.953c-23.021,0-41.895-11.821-44.176-36.294h33.806
		c0.207,6.429,4.771,8.71,10.784,8.71c4.563,0,9.748-2.488,9.748-7.673c0-18.044-57.863-7.882-57.863-48.531
		C330.104,50.348,353.539,37.075,376.975,37.075z"/>
</g>
</svg>
